JosefinSlab-Thin.ufo
<glyph name="exclam" format="2">
  <advance width="226"/>
  <unicode hex="0021"/>
  <outline>
    <contour>
      <point x="106" y="750" type="line"/>
      <point x="120" y="750" type="line"/>
      <point x="120" y="166" type="line"/>
      <point x="106" y="166" type="line"/>
    </contour>
    <contour>
      <point x="113" y="36" type="qcurve"/>
      <point x="106" y="36"/>
      <point x="94" y="48"/>
      <point x="94" y="56" type="qcurve"/>
      <point x="94" y="65"/>
      <point x="106" y="76"/>
      <point x="113" y="76" type="qcurve"/>
      <point x="121" y="76"/>
      <point x="133" y="65"/>
      <point x="133" y="56" type="qcurve"/>
      <point x="133" y="48"/>
      <point x="121" y="36"/>
    </contour>
  </outline>
</glyph>
<glyph name="quotedbl" format="2">
  <advance width="312"/>
  <unicode hex="0022"/>
  <outline>
    <contour>
      <point x="215" y="472" type="line"/>
      <point x="215" y="720" type="line"/>
      <point x="233" y="720" type="line"/>
      <point x="229" y="472" type="line"/>
    </contour>
    <contour>
      <point x="82" y="472" type="line"/>
      <point x="82" y="720" type="line"/>
      <point x="100" y="720" type="line"/>
      <point x="96" y="472" type="line"/>
    </contour>
  </outline>
</glyph>
<glyph name="dollar" format="2">
  <advance width="531"/>
  <unicode hex="0024"/>
  <outline>
    <contour>
      <point x="427" y="582" type="line"/>
      <point x="427" y="659" type="line"/>
      <point x="399" y="670"/>
      <point x="316" y="691"/>
      <point x="275" y="691" type="qcurve"/>
      <point x="266" y="691" type="line"/>
      <point x="266" y="398" type="line"/>
      <point x="304" y="384"/>
      <point x="379" y="352"/>
      <point x="439" y="306"/>
      <point x="477" y="238"/>
      <point x="477" y="188" type="qcurve"/>
      <point x="477" y="143"/>
      <point x="445" y="71"/>
      <point x="389" y="21"/>
      <point x="312" y="-7"/>
      <point x="266" y="-8" type="qcurve"/>
      <point x="266" y="-68" type="line"/>
      <point x="252" y="-68" type="line"/>
      <point x="252" y="-8" type="line"/>
      <point x="213" y="-7"/>
      <point x="146" y="12"/>
      <point x="95" y="35"/>
      <point x="60" y="58"/>
      <point x="52" y="63" type="qcurve"/>
      <point x="52" y="148" type="line"/>
      <point x="66" y="148" type="line"/>
      <point x="66" y="72" type="line"/>
      <point x="81" y="61"/>
      <point x="121" y="39"/>
      <point x="170" y="20"/>
      <point x="224" y="7"/>
      <point x="252" y="6" type="qcurve"/>
      <point x="252" y="387" type="line"/>
      <point x="219" y="399"/>
      <point x="158" y="425"/>
      <point x="111" y="460"/>
      <point x="83" y="508"/>
      <point x="83" y="543" type="qcurve"/>
      <point x="83" y="576"/>
      <point x="109" y="632"/>
      <point x="154" y="674"/>
      <point x="216" y="700"/>
      <point x="252" y="703" type="qcurve"/>
      <point x="252" y="764" type="line"/>
      <point x="266" y="764" type="line"/>
      <point x="266" y="704" type="line"/>
      <point x="269" y="704" type="line"/>
      <point x="287" y="704"/>
      <point x="332" y="699"/>
      <point x="378" y="689"/>
      <point x="423" y="675"/>
      <point x="441" y="667" type="qcurve"/>
      <point x="441" y="582" type="line"/>
    </contour>
    <contour>
      <point x="463" y="187" type="qcurve"/>
      <point x="463" y="233"/>
      <point x="429" y="295"/>
      <point x="373" y="339"/>
      <point x="302" y="369"/>
      <point x="266" y="382" type="qcurve"/>
      <point x="266" y="6" type="line"/>
      <point x="303" y="6"/>
      <point x="373" y="29"/>
      <point x="429" y="74"/>
      <point x="463" y="142"/>
    </contour>
    <contour>
      <point x="97" y="546" type="qcurve"/>
      <point x="97" y="515"/>
      <point x="122" y="471"/>
      <point x="165" y="439"/>
      <point x="221" y="414"/>
      <point x="252" y="403" type="qcurve"/>
      <point x="252" y="690" type="line"/>
      <point x="216" y="687"/>
      <point x="158" y="661"/>
      <point x="118" y="622"/>
      <point x="97" y="573"/>
    </contour>
  </outline>
</glyph>
<glyph name="ampersand" format="2">
  <advance width="665"/>
  <unicode hex="0026"/>
  <outline>
    <contour>
      <point x="638" y="14" type="line"/>
      <point x="638" y="0" type="line"/>
      <point x="560" y="0" type="line"/>
      <point x="488" y="93" type="line"/>
      <point x="459" y="49"/>
      <point x="347" y="-6"/>
      <point x="279" y="-6" type="qcurve"/>
      <point x="229" y="-6"/>
      <point x="147" y="24"/>
      <point x="87" y="77"/>
      <point x="54" y="147"/>
      <point x="54" y="186" type="qcurve"/>
      <point x="54" y="226"/>
      <point x="89" y="296"/>
      <point x="147" y="348"/>
      <point x="222" y="380"/>
      <point x="263" y="383" type="qcurve"/>
      <point x="175" y="497" type="line"/>
      <point x="163" y="518"/>
      <point x="144" y="565"/>
      <point x="144" y="597" type="qcurve"/>
      <point x="144" y="631"/>
      <point x="169" y="687"/>
      <point x="211" y="727"/>
      <point x="268" y="748"/>
      <point x="300" y="748" type="qcurve"/>
      <point x="339" y="748"/>
      <point x="407" y="721"/>
      <point x="432" y="706" type="qcurve"/>
      <point x="430" y="703"/>
      <point x="428" y="700"/>
      <point x="426" y="697" type="qcurve"/>
      <point x="396" y="714"/>
      <point x="333" y="736"/>
      <point x="301" y="736" type="qcurve"/>
      <point x="271" y="736"/>
      <point x="219" y="716"/>
      <point x="181" y="680"/>
      <point x="159" y="631"/>
      <point x="159" y="601" type="qcurve"/>
      <point x="159" y="581"/>
      <point x="168" y="545"/>
      <point x="173" y="532" type="qcurve"/>
      <point x="179" y="516"/>
      <point x="188" y="504" type="qcurve"/>
      <point x="485" y="119" type="line"/>
      <point x="584" y="384" type="line"/>
      <point x="601" y="384" type="line"/>
      <point x="496" y="106" type="line"/>
      <point x="567" y="14" type="line"/>
    </contour>
    <contour>
      <point x="71" y="184" type="qcurve"/>
      <point x="71" y="145"/>
      <point x="104" y="80"/>
      <point x="161" y="33"/>
      <point x="237" y="8"/>
      <point x="279" y="8" type="qcurve"/>
      <point x="312" y="8"/>
      <point x="373" y="23"/>
      <point x="425" y="50"/>
      <point x="466" y="85"/>
      <point x="478" y="105" type="qcurve"/>
      <point x="274" y="369" type="line"/>
      <point x="239" y="368"/>
      <point x="167" y="341"/>
      <point x="108" y="293"/>
      <point x="71" y="226"/>
    </contour>
  </outline>
</glyph>
<glyph name="parenright" format="2">
  <advance width="252"/>
  <unicode hex="0029"/>
  <outline>
    <contour>
      <point x="199" y="292" type="qcurve"/>
      <point x="199" y="217"/>
      <point x="171" y="81"/>
      <point x="125" y="-35"/>
      <point x="65" y="-130"/>
      <point x="34" y="-163" type="qcurve"/>
      <point x="31" y="-140" type="line"/>
      <point x="60" y="-107"/>
      <point x="115" y="-17"/>
      <point x="159" y="93"/>
      <point x="185" y="221"/>
      <point x="185" y="292" type="qcurve"/>
      <point x="185" y="363"/>
      <point x="159" y="491"/>
      <point x="115" y="601"/>
      <point x="60" y="691"/>
      <point x="31" y="724" type="qcurve"/>
      <point x="34" y="747" type="line"/>
      <point x="65" y="714"/>
      <point x="125" y="619"/>
      <point x="171" y="503"/>
      <point x="199" y="367"/>
    </contour>
  </outline>
</glyph>
<glyph name="asterisk" format="2">
  <advance width="415"/>
  <unicode hex="002A"/>
  <outline>
    <contour>
      <point x="227" y="575" type="line"/>
      <point x="339" y="511" type="line"/>
      <point x="330" y="496" type="line"/>
      <point x="219" y="562" type="line"/>
      <point x="217" y="434" type="line"/>
      <point x="203" y="434" type="line"/>
      <point x="203" y="561" type="line"/>
      <point x="93" y="498" type="line"/>
      <point x="84" y="513" type="line"/>
      <point x="195" y="576" type="line"/>
      <point x="84" y="642" type="line"/>
      <point x="91" y="654" type="line"/>
      <point x="203" y="589" type="line"/>
      <point x="203" y="720" type="line"/>
      <point x="221" y="720" type="line"/>
      <point x="219" y="589" type="line"/>
      <point x="333" y="653" type="line"/>
      <point x="340" y="641" type="line"/>
    </contour>
  </outline>
</glyph>
<glyph name="plus" format="2">
  <advance width="480"/>
  <unicode hex="002B"/>
  <outline>
    <contour>
      <point x="233" y="51" type="line"/>
      <point x="233" y="225" type="line"/>
      <point x="60" y="225" type="line"/>
      <point x="60" y="239" type="line"/>
      <point x="233" y="239" type="line"/>
      <point x="233" y="411" type="line"/>
      <point x="247" y="411" type="line"/>
      <point x="247" y="239" type="line"/>
      <point x="420" y="239" type="line"/>
      <point x="420" y="225" type="line"/>
      <point x="247" y="225" type="line"/>
      <point x="247" y="51" type="line"/>
    </contour>
  </outline>
</glyph>
<glyph name="period" format="2">
  <advance width="184"/>
  <unicode hex="002E"/>
  <outline>
    <contour>
      <point x="72" y="20" type="qcurve"/>
      <point x="72" y="28"/>
      <point x="84" y="40"/>
      <point x="92" y="40" type="qcurve"/>
      <point x="100" y="40"/>
      <point x="112" y="28"/>
      <point x="112" y="20" type="qcurve"/>
      <point x="112" y="12"/>
      <point x="100" y="0"/>
      <point x="92" y="0" type="qcurve"/>
      <point x="84" y="0"/>
      <point x="72" y="12"/>
    </contour>
  </outline>
</glyph>
<glyph name="slash" format="2">
  <advance width="386"/>
  <unicode hex="002F"/>
  <outline>
    <contour>
      <point x="47" y="-19" type="line"/>
      <point x="325" y="736" type="line"/>
      <point x="339" y="736" type="line"/>
      <point x="61" y="-19" type="line"/>
    </contour>
  </outline>
</glyph>
<glyph name="one" format="2">
  <advance width="285"/>
  <unicode hex="0031"/>
  <outline>
    <contour>
      <point x="34" y="636" type="line"/>
      <point x="34" y="650" type="line"/>
      <point x="161" y="650" type="line"/>
      <point x="161" y="0" type="line"/>
      <point x="147" y="0" type="line"/>
      <point x="147" y="636" type="line"/>
    </contour>
  </outline>
</glyph>
<glyph name="two" format="2">
  <advance width="526"/>
  <unicode hex="0032"/>
  <outline>
    <contour>
      <point x="103" y="14" type="qcurve"/>
      <point x="449" y="14" type="line"/>
      <point x="449" y="148" type="line"/>
      <point x="463" y="148" type="line"/>
      <point x="463" y="0" type="line"/>
      <point x="67" y="0" type="line"/>
      <point x="131" y="62"/>
      <point x="253" y="183"/>
      <point x="346" y="298"/>
      <point x="403" y="405"/>
      <point x="403" y="452" type="qcurve"/>
      <point x="403" y="508"/>
      <point x="371" y="582"/>
      <point x="323" y="626"/>
      <point x="267" y="644"/>
      <point x="242" y="644" type="qcurve"/>
      <point x="192" y="644"/>
      <point x="129" y="609"/>
      <point x="92" y="556"/>
      <point x="78" y="495"/>
      <point x="78" y="469" type="qcurve"/>
      <point x="78" y="398"/>
      <point x="118" y="355" type="qcurve"/>
      <point x="109" y="347" type="line"/>
      <point x="88" y="371"/>
      <point x="64" y="428"/>
      <point x="64" y="469" type="qcurve"/>
      <point x="64" y="509"/>
      <point x="87" y="578"/>
      <point x="132" y="629"/>
      <point x="199" y="658"/>
      <point x="242" y="658" type="qcurve"/>
      <point x="281" y="658"/>
      <point x="345" y="629"/>
      <point x="392" y="577"/>
      <point x="417" y="506"/>
      <point x="417" y="464" type="qcurve"/>
      <point x="417" y="406"/>
      <point x="358" y="291"/>
      <point x="266" y="179"/>
      <point x="155" y="68"/>
    </contour>
  </outline>
</glyph>
<glyph name="three" format="2">
  <advance width="484"/>
  <unicode hex="0033"/>
  <outline>
    <contour>
      <point x="75" y="574" type="line"/>
      <point x="75" y="650" type="line"/>
      <point x="394" y="650" type="line"/>
      <point x="195" y="398" type="line"/>
      <point x="240" y="400"/>
      <point x="321" y="371"/>
      <point x="382" y="317"/>
      <point x="418" y="240"/>
      <point x="418" y="195" type="qcurve"/>
      <point x="418" y="153"/>
      <point x="386" y="79"/>
      <point x="330" y="24"/>
      <point x="256" y="-8"/>
      <point x="214" y="-8" type="qcurve"/>
      <point x="169" y="-8"/>
      <point x="93" y="28"/>
      <point x="65" y="58" type="qcurve"/>
      <point x="75" y="71" type="line"/>
      <point x="99" y="42"/>
      <point x="169" y="6"/>
      <point x="211" y="6" type="qcurve"/>
      <point x="250" y="6"/>
      <point x="321" y="36"/>
      <point x="373" y="88"/>
      <point x="404" y="157"/>
      <point x="404" y="195" type="qcurve"/>
      <point x="404" y="234"/>
      <point x="373" y="303"/>
      <point x="321" y="354"/>
      <point x="250" y="384"/>
      <point x="211" y="384" type="qcurve"/>
      <point x="195" y="384"/>
      <point x="164" y="372"/>
      <point x="150" y="361" type="qcurve"/>
      <point x="362" y="636" type="line"/>
      <point x="89" y="636" type="line"/>
      <point x="89" y="574" type="line"/>
    </contour>
  </outline>
</glyph>
<glyph name="four" format="2">
  <advance width="526"/>
  <unicode hex="0034"/>
  <outline>
    <contour>
      <point x="465" y="14" type="line"/>
      <point x="465" y="0" type="line"/>
      <point x="291" y="0" type="line"/>
      <point x="291" y="14" type="line"/>
      <point x="370" y="14" type="line"/>
      <point x="370" y="183" type="line"/>
      <point x="18" y="183" type="line"/>
      <point x="384" y="658" type="line"/>
      <point x="384" y="197" type="line"/>
      <point x="481" y="197" type="line"/>
      <point x="481" y="183" type="line"/>
      <point x="384" y="183" type="line"/>
      <point x="384" y="14" type="line"/>
    </contour>
    <contour>
      <point x="370" y="617" type="line"/>
      <point x="48" y="197" type="line"/>
      <point x="370" y="197" type="line"/>
    </contour>
  </outline>
</glyph>
<glyph name="seven" format="2">
  <advance width="461"/>
  <unicode hex="0037"/>
  <outline>
    <contour>
      <point x="41" y="574" type="line"/>
      <point x="41" y="650" type="line"/>
      <point x="442" y="650" type="line"/>
      <point x="150" y="0" type="line"/>
      <point x="132" y="0" type="line"/>
      <point x="419" y="636" type="line"/>
      <point x="55" y="636" type="line"/>
      <point x="55" y="574" type="line"/>
    </contour>
  </outline>
</glyph>
<glyph name="semicolon" format="2">
  <advance width="224"/>
  <unicode hex="003B"/>
  <outline>
    <contour>
      <point x="109" y="270" type="qcurve"/>
      <point x="109" y="278"/>
      <point x="121" y="290"/>
      <point x="129" y="290" type="qcurve"/>
      <point x="137" y="290"/>
      <point x="149" y="278"/>
      <point x="149" y="270" type="qcurve"/>
      <point x="149" y="262"/>
      <point x="137" y="250"/>
      <point x="129" y="250" type="qcurve"/>
      <point x="121" y="250"/>
      <point x="109" y="262"/>
    </contour>
    <contour>
      <point x="138" y="86" type="line"/>
      <point x="127" y="60"/>
      <point x="113" y="29"/>
      <point x="101" y="1"/>
      <point x="88" y="-30"/>
      <point x="77" y="-56" type="qcurve"/>
      <point x="63" y="-56" type="line"/>
      <point x="73" y="-30"/>
      <point x="84" y="1"/>
      <point x="94" y="29"/>
      <point x="105" y="60"/>
      <point x="115" y="86" type="qcurve"/>
    </contour>
  </outline>
</glyph>
<glyph name="equal" format="2">
  <advance width="670"/>
  <unicode hex="003D"/>
  <outline>
    <contour>
      <point x="588" y="164" type="line"/>
      <point x="588" y="150" type="line"/>
      <point x="82" y="150" type="line"/>
      <point x="82" y="164" type="line"/>
    </contour>
    <contour>
      <point x="588" y="358" type="line"/>
      <point x="588" y="344" type="line"/>
      <point x="82" y="344" type="line"/>
      <point x="82" y="358" type="line"/>
    </contour>
  </outline>
</glyph>
<glyph name="greater" format="2">
  <advance width="560"/>
  <unicode hex="003E"/>
  <outline>
    <contour>
      <point x="85" y="-15" type="line"/>
      <point x="85" y="1" type="line"/>
      <point x="497" y="238" type="line"/>
      <point x="85" y="475" type="line"/>
      <point x="85" y="491" type="line"/>
      <point x="523" y="238" type="line"/>
    </contour>
  </outline>
</glyph>
<glyph name="G" format="2">
  <advance width="681"/>
  <unicode hex="0047"/>
  <outline>
    <contour>
      <point x="587" y="582" type="line"/>
      <point x="587" y="649" type="line"/>
      <point x="549" y="671"/>
      <point x="463" y="694"/>
      <point x="418" y="694" type="qcurve"/>
      <point x="347" y="694"/>
      <point x="222" y="639"/>
      <point x="176" y="592" type="qcurve" smooth="yes" name="inserted"/>
      <point x="129" y="545"/>
      <point x="75" y="419"/>
      <point x="75" y="348" type="qcurve"/>
      <point x="75" y="277"/>
      <point x="123" y="153"/>
      <point x="168" y="107" type="qcurve" smooth="yes" name="inserted"/>
      <point x="212" y="60"/>
      <point x="337" y="6"/>
      <point x="415" y="6" type="qcurve"/>
      <point x="462" y="6"/>
      <point x="548" y="29"/>
      <point x="586" y="51" type="qcurve"/>
      <point x="586" y="286" type="line"/>
      <point x="414" y="286" type="line"/>
      <point x="414" y="300" type="line"/>
      <point x="600" y="300" type="line"/>
      <point x="600" y="42" type="line"/>
      <point x="560" y="19"/>
      <point x="469" y="-8"/>
      <point x="418" y="-8" type="qcurve"/>
      <point x="337" y="-8"/>
      <point x="205" y="48"/>
      <point x="159" y="97" type="qcurve" smooth="yes" name="inserted"/>
      <point x="112" y="145"/>
      <point x="61" y="275"/>
      <point x="61" y="349" type="qcurve"/>
      <point x="61" y="423"/>
      <point x="117" y="554"/>
      <point x="166" y="603" type="qcurve" smooth="yes" name="inserted"/>
      <point x="214" y="651"/>
      <point x="344" y="708"/>
      <point x="418" y="708" type="qcurve"/>
      <point x="469" y="708"/>
      <point x="560" y="682"/>
      <point x="601" y="658" type="qcurve"/>
      <point x="601" y="582" type="line"/>
    </contour>
  </outline>
</glyph>
<glyph name="I" format="2">
  <advance width="294"/>
  <unicode hex="0049"/>
  <outline>
    <contour>
      <point x="237" y="700" type="line"/>
      <point x="237" y="686" type="line"/>
      <point x="154" y="686" type="line"/>
      <point x="154" y="14" type="line"/>
      <point x="237" y="14" type="line"/>
      <point x="237" y="0" type="line"/>
      <point x="63" y="0" type="line"/>
      <point x="63" y="14" type="line"/>
      <point x="140" y="14" type="line"/>
      <point x="140" y="686" type="line"/>
      <point x="63" y="686" type="line"/>
      <point x="63" y="700" type="line"/>
    </contour>
  </outline>
</glyph>
<glyph name="K" format="2">
  <advance width="664"/>
  <unicode hex="004B"/>
  <outline>
    <contour>
      <point x="237" y="14" type="line"/>
      <point x="237" y="0" type="line"/>
      <point x="63" y="0" type="line"/>
      <point x="63" y="14" type="line"/>
      <point x="140" y="14" type="line"/>
      <point x="140" y="686" type="line"/>
      <point x="63" y="686" type="line"/>
      <point x="63" y="700" type="line"/>
      <point x="237" y="700" type="line"/>
      <point x="237" y="686" type="line"/>
      <point x="154" y="686" type="line"/>
      <point x="154" y="360" type="line"/>
      <point x="154" y="352"/>
      <point x="153" y="339"/>
      <point x="153" y="331" type="qcurve"/>
      <point x="170" y="351" type="line"/>
      <point x="521" y="686" type="line"/>
      <point x="456" y="686" type="line"/>
      <point x="456" y="700" type="line"/>
      <point x="619" y="700" type="line"/>
      <point x="619" y="686" type="line"/>
      <point x="543" y="686" type="line"/>
      <point x="268" y="424" type="line"/>
      <point x="349" y="321"/>
      <point x="510" y="117"/>
      <point x="591" y="14" type="qcurve"/>
      <point x="673" y="14" type="line"/>
      <point x="673" y="0" type="line"/>
      <point x="495" y="0" type="line"/>
      <point x="495" y="14" type="line"/>
      <point x="571" y="14" type="line"/>
      <point x="257" y="414" type="line"/>
      <point x="153" y="316" type="line"/>
      <point x="153" y="240"/>
      <point x="154" y="89"/>
      <point x="154" y="14" type="qcurve"/>
    </contour>
  </outline>
</glyph>
<glyph name="L" format="2">
  <advance width="592"/>
  <unicode hex="004C"/>
  <outline>
    <contour>
      <point x="237" y="700" type="line"/>
      <point x="237" y="686" type="line"/>
      <point x="153" y="686" type="line"/>
      <point x="153" y="14" type="line"/>
      <point x="554" y="14" type="line"/>
      <point x="554" y="89" type="line"/>
      <point x="568" y="89" type="line"/>
      <point x="568" y="0" type="line"/>
      <point x="63" y="0" type="line"/>
      <point x="63" y="14" type="line"/>
      <point x="139" y="14" type="line"/>
      <point x="139" y="686" type="line"/>
      <point x="63" y="686" type="line"/>
      <point x="63" y="700" type="line"/>
    </contour>
  </outline>
</glyph>
<glyph name="N" format="2">
  <advance width="837"/>
  <unicode hex="004E"/>
  <outline>
    <contour>
      <point x="235" y="14" type="line"/>
      <point x="235" y="0" type="line"/>
      <point x="61" y="0" type="line"/>
      <point x="61" y="14" type="line"/>
      <point x="138" y="14" type="line"/>
      <point x="138" y="686" type="line"/>
      <point x="61" y="686" type="line"/>
      <point x="61" y="700" type="line"/>
      <point x="163" y="700" type="line"/>
      <point x="235" y="609"/>
      <point x="363" y="442"/>
      <point x="486" y="279"/>
      <point x="610" y="116"/>
      <point x="679" y="28" type="qcurve"/>
      <point x="698" y="2" type="line"/>
      <point x="695" y="34" type="line"/>
      <point x="695" y="687" type="line"/>
      <point x="610" y="687" type="line"/>
      <point x="610" y="701" type="line"/>
      <point x="784" y="701" type="line"/>
      <point x="784" y="687" type="line"/>
      <point x="709" y="687" type="line"/>
      <point x="709" y="-32" type="line"/>
      <point x="566" y="147"/>
      <point x="299" y="496"/>
      <point x="168" y="670" type="qcurve"/>
      <point x="149" y="696" type="line"/>
      <point x="152" y="664" type="line"/>
      <point x="152" y="14" type="line"/>
    </contour>
  </outline>
</glyph>
<glyph name="W" format="2">
  <advance width="985"/>
  <unicode hex="0057"/>
  <outline>
    <contour>
      <point x="165" y="700" type="line"/>
      <point x="165" y="686" type="line"/>
      <point x="79" y="686" type="line"/>
      <point x="97" y="643"/>
      <point x="138" y="541"/>
      <point x="181" y="432"/>
      <point x="225" y="321"/>
      <point x="245" y="270" type="qcurve"/>
      <point x="292" y="149"/>
      <point x="339" y="25" type="qcurve"/>
      <point x="348" y="0" type="line"/>
      <point x="355" y="25" type="line"/>
      <point x="479" y="408" type="line"/>
      <point x="370" y="700" type="line"/>
      <point x="385" y="700" type="line"/>
      <point x="435" y="568"/>
      <point x="481" y="444" type="qcurve"/>
      <point x="500" y="391"/>
      <point x="542" y="277"/>
      <point x="581" y="167"/>
      <point x="617" y="66"/>
      <point x="631" y="25" type="qcurve"/>
      <point x="640" y="0" type="line"/>
      <point x="641" y="3"/>
      <point x="644" y="11"/>
      <point x="646" y="15" type="qcurve"/>
      <point x="648" y="19"/>
      <point x="649" y="25" type="qcurve"/>
      <point x="698" y="154"/>
      <point x="746" y="278" type="qcurve"/>
      <point x="767" y="331"/>
      <point x="811" y="444"/>
      <point x="855" y="555"/>
      <point x="897" y="658"/>
      <point x="915" y="700" type="qcurve"/>
      <point x="975" y="700" type="line"/>
      <point x="975" y="686" type="line"/>
      <point x="924" y="686" type="line"/>
      <point x="904" y="639"/>
      <point x="859" y="528"/>
      <point x="812" y="410"/>
      <point x="765" y="289"/>
      <point x="743" y="234" type="qcurve"/>
      <point x="692" y="103"/>
      <point x="640" y="-32" type="qcurve"/>
      <point x="492" y="367" type="line"/>
      <point x="485" y="388" type="line"/>
      <point x="478" y="367" type="line"/>
      <point x="453" y="290"/>
      <point x="429" y="217" type="qcurve"/>
      <point x="419" y="186"/>
      <point x="397" y="119"/>
      <point x="376" y="53"/>
      <point x="356" y="-7"/>
      <point x="348" y="-32" type="qcurve"/>
      <point x="272" y="148"/>
      <point x="139" y="505"/>
      <point x="64" y="686" type="qcurve"/>
      <point x="-9" y="686" type="line"/>
      <point x="-9" y="700" type="line"/>
    </contour>
  </outline>
</glyph>
<glyph name="Y" format="2">
  <advance width="662"/>
  <unicode hex="0059"/>
  <outline>
    <contour>
      <point x="419" y="14" type="line"/>
      <point x="419" y="0" type="line"/>
      <point x="245" y="0" type="line"/>
      <point x="245" y="14" type="line"/>
      <point x="325" y="14" type="line"/>
      <point x="325" y="262" type="line"/>
      <point x="70" y="686" type="line"/>
      <point x="5" y="686" type="line"/>
      <point x="5" y="700" type="line"/>
      <point x="179" y="700" type="line"/>
      <point x="179" y="686" type="line"/>
      <point x="87" y="686" type="line"/>
      <point x="146" y="588"/>
      <point x="263" y="396"/>
      <point x="320" y="298" type="qcurve"/>
      <point x="333" y="272" type="line"/>
      <point x="344" y="298" type="line"/>
      <point x="575" y="686" type="line"/>
      <point x="484" y="686" type="line"/>
      <point x="484" y="700" type="line"/>
      <point x="664" y="700" type="line"/>
      <point x="664" y="686" type="line"/>
      <point x="592" y="686" type="line"/>
      <point x="339" y="262" type="line"/>
      <point x="339" y="14" type="line"/>
    </contour>
  </outline>
</glyph>
<glyph name="bracketleft" format="2">
  <advance width="295"/>
  <unicode hex="005B"/>
  <outline>
    <contour>
      <point x="103" y="-149" type="line"/>
      <point x="103" y="746" type="line"/>
      <point x="266" y="746" type="line"/>
      <point x="266" y="732" type="line"/>
      <point x="119" y="732" type="line"/>
      <point x="119" y="-135" type="line"/>
      <point x="266" y="-135" type="line"/>
      <point x="266" y="-149" type="line"/>
    </contour>
  </outline>
</glyph>
<glyph name="backslash" format="2">
  <advance width="386"/>
  <unicode hex="005C"/>
  <outline>
    <contour>
      <point x="60" y="736" type="line"/>
      <point x="338" y="-19" type="line"/>
      <point x="324" y="-19" type="line"/>
      <point x="46" y="736" type="line"/>
    </contour>
  </outline>
</glyph>
<glyph name="grave" format="2">
  <advance width="200"/>
  <unicode hex="0060"/>
  <outline>
    <contour>
      <point x="2" y="612" type="line"/>
      <point x="92" y="479" type="line"/>
      <point x="76" y="479" type="line"/>
      <point x="-14" y="612" type="line"/>
    </contour>
  </outline>
</glyph>
<glyph name="j" format="2">
  <advance width="177"/>
  <unicode hex="006A"/>
  <outline>
    <contour>
      <point x="35" y="-180" type="qcurve"/>
      <point x="23" y="-171" type="line"/>
      <point x="48" y="-143"/>
      <point x="78" y="-62"/>
      <point x="78" y="-11" type="qcurve"/>
      <point x="78" y="361" type="line"/>
      <point x="-2" y="361" type="line"/>
      <point x="-2" y="375" type="line"/>
      <point x="92" y="375" type="line"/>
      <point x="92" y="-7" type="line"/>
      <point x="92" y="-64"/>
      <point x="61" y="-151"/>
    </contour>
    <contour>
      <point x="65" y="500" type="qcurve"/>
      <point x="65" y="508"/>
      <point x="77" y="520"/>
      <point x="85" y="520" type="qcurve"/>
      <point x="93" y="520"/>
      <point x="105" y="508"/>
      <point x="105" y="500" type="qcurve"/>
      <point x="105" y="492"/>
      <point x="93" y="480"/>
      <point x="85" y="480" type="qcurve"/>
      <point x="77" y="480"/>
      <point x="65" y="492"/>
    </contour>
  </outline>
</glyph>
<glyph name="m" format="2">
  <advance width="766"/>
  <unicode hex="006D"/>
  <outline>
    <contour>
      <point x="119" y="220" type="qcurve"/>
      <point x="119" y="14" type="line"/>
      <point x="200" y="14" type="line"/>
      <point x="200" y="0" type="line"/>
      <point x="25" y="0" type="line"/>
      <point x="25" y="14" type="line"/>
      <point x="105" y="14" type="line"/>
      <point x="105" y="361" type="line"/>
      <point x="25" y="361" type="line"/>
      <point x="25" y="375" type="line"/>
      <point x="115" y="375" type="line"/>
      <point x="116" y="277" type="line"/>
      <point x="136" y="324"/>
      <point x="224" y="382"/>
      <point x="281" y="382" type="qcurve"/>
      <point x="330" y="382"/>
      <point x="391" y="327"/>
      <point x="396" y="282" type="qcurve"/>
      <point x="417" y="327"/>
      <point x="504" y="382"/>
      <point x="559" y="382" type="qcurve"/>
      <point x="612" y="382"/>
      <point x="673" y="320"/>
      <point x="675" y="270" type="qcurve"/>
      <point x="675" y="14" type="line"/>
      <point x="755" y="14" type="line"/>
      <point x="755" y="0" type="line"/>
      <point x="582" y="0" type="line"/>
      <point x="582" y="14" type="line"/>
      <point x="661" y="14" type="line"/>
      <point x="661" y="277" type="line"/>
      <point x="659" y="313"/>
      <point x="610" y="366"/>
      <point x="566" y="368" type="qcurve"/>
      <point x="533" y="368"/>
      <point x="473" y="347"/>
      <point x="427" y="309"/>
      <point x="398" y="257"/>
      <point x="397" y="226" type="qcurve"/>
      <point x="397" y="14" type="line"/>
      <point x="477" y="14" type="line"/>
      <point x="477" y="0" type="line"/>
      <point x="304" y="0" type="line"/>
      <point x="304" y="14" type="line"/>
      <point x="383" y="14" type="line"/>
      <point x="383" y="277" type="line"/>
      <point x="381" y="313"/>
      <point x="332" y="366"/>
      <point x="288" y="368" type="qcurve"/>
      <point x="254" y="368"/>
      <point x="193" y="346"/>
      <point x="146" y="307"/>
      <point x="119" y="252"/>
    </contour>
  </outline>
</glyph>
<glyph name="o" format="2">
  <advance width="480"/>
  <unicode hex="006F"/>
  <outline>
    <contour>
      <point x="45" y="188" type="qcurve"/>
      <point x="45" y="228"/>
      <point x="75" y="300"/>
      <point x="128" y="353"/>
      <point x="198" y="384"/>
      <point x="239" y="384" type="qcurve"/>
      <point x="279" y="384"/>
      <point x="351" y="353"/>
      <point x="404" y="300"/>
      <point x="435" y="228"/>
      <point x="435" y="188" type="qcurve"/>
      <point x="435" y="147"/>
      <point x="404" y="77"/>
      <point x="351" y="24"/>
      <point x="279" y="-6"/>
      <point x="239" y="-6" type="qcurve"/>
      <point x="198" y="-6"/>
      <point x="128" y="24"/>
      <point x="75" y="77"/>
      <point x="45" y="147"/>
    </contour>
    <contour>
      <point x="59" y="188" type="qcurve"/>
      <point x="59" y="150"/>
      <point x="87" y="85"/>
      <point x="136" y="36"/>
      <point x="201" y="8"/>
      <point x="239" y="8" type="qcurve"/>
      <point x="276" y="8"/>
      <point x="342" y="36"/>
      <point x="392" y="85"/>
      <point x="420" y="150"/>
      <point x="420" y="188" type="qcurve"/>
      <point x="420" y="225"/>
      <point x="392" y="291"/>
      <point x="342" y="341"/>
      <point x="276" y="369"/>
      <point x="239" y="369" type="qcurve"/>
      <point x="201" y="369"/>
      <point x="136" y="341"/>
      <point x="87" y="291"/>
      <point x="59" y="225"/>
    </contour>
  </outline>
</glyph>
<glyph name="p" format="2">
  <advance width="528"/>
  <unicode hex="0070"/>
  <outline>
    <contour>
      <point x="14" y="361" type="line"/>
      <point x="14" y="375" type="line"/>
      <point x="108" y="375" type="line"/>
      <point x="108" y="260" type="line"/>
      <point x="130" y="314"/>
      <point x="227" y="383"/>
      <point x="289" y="383" type="qcurve"/>
      <point x="329" y="383"/>
      <point x="400" y="352"/>
      <point x="453" y="300"/>
      <point x="483" y="228"/>
      <point x="483" y="188" type="qcurve"/>
      <point x="483" y="147"/>
      <point x="453" y="77"/>
      <point x="400" y="24"/>
      <point x="329" y="-6"/>
      <point x="289" y="-6" type="qcurve"/>
      <point x="258" y="-6"/>
      <point x="201" y="12"/>
      <point x="154" y="45"/>
      <point x="117" y="90"/>
      <point x="107" y="117" type="qcurve"/>
      <point x="107" y="101"/>
      <point x="108" y="70"/>
      <point x="108" y="54" type="qcurve"/>
      <point x="108" y="-167" type="line"/>
      <point x="189" y="-167" type="line"/>
      <point x="189" y="-181" type="line"/>
      <point x="14" y="-181" type="line"/>
      <point x="14" y="-167" type="line"/>
      <point x="94" y="-167" type="line"/>
      <point x="94" y="361" type="line"/>
    </contour>
    <contour>
      <point x="469" y="188" type="qcurve"/>
      <point x="469" y="225"/>
      <point x="441" y="291"/>
      <point x="392" y="341"/>
      <point x="326" y="369"/>
      <point x="289" y="369" type="qcurve"/>
      <point x="251" y="369"/>
      <point x="186" y="341"/>
      <point x="136" y="291"/>
      <point x="108" y="225"/>
      <point x="108" y="188" type="qcurve"/>
      <point x="108" y="150"/>
      <point x="136" y="85"/>
      <point x="186" y="36"/>
      <point x="251" y="8"/>
      <point x="289" y="8" type="qcurve"/>
      <point x="326" y="8"/>
      <point x="392" y="36"/>
      <point x="441" y="85"/>
      <point x="469" y="150"/>
    </contour>
  </outline>
</glyph>
<glyph name="t" format="2">
  <advance width="244"/>
  <unicode hex="0074"/>
  <outline>
    <contour>
      <point x="114" y="353" type="line"/>
      <point x="114" y="14" type="line"/>
      <point x="205" y="14" type="line"/>
      <point x="205" y="0" type="line"/>
      <point x="100" y="0" type="line"/>
      <point x="100" y="353" type="line"/>
      <point x="11" y="353" type="line"/>
      <point x="11" y="367" type="line"/>
      <point x="100" y="367" type="line"/>
      <point x="100" y="539" type="line"/>
      <point x="114" y="539" type="line"/>
      <point x="114" y="367" type="line"/>
      <point x="241" y="367" type="line"/>
      <point x="241" y="353" type="line"/>
    </contour>
  </outline>
</glyph>
<glyph name="w" format="2">
  <advance width="693"/>
  <unicode hex="0077"/>
  <outline>
    <contour>
      <point x="566" y="375" type="line"/>
      <point x="685" y="375" type="line"/>
      <point x="685" y="361" type="line"/>
      <point x="634" y="361" type="line"/>
      <point x="590" y="264"/>
      <point x="506" y="74"/>
      <point x="463" y="-23" type="qcurve"/>
      <point x="342" y="251" type="line"/>
      <point x="231" y="-23" type="line"/>
      <point x="187" y="74"/>
      <point x="102" y="264"/>
      <point x="59" y="361" type="qcurve"/>
      <point x="4" y="361" type="line"/>
      <point x="4" y="375" type="line"/>
      <point x="142" y="375" type="line"/>
      <point x="142" y="361" type="line"/>
      <point x="74" y="361" type="line"/>
      <point x="113" y="272"/>
      <point x="191" y="96"/>
      <point x="231" y="8" type="qcurve"/>
      <point x="257" y="73"/>
      <point x="308" y="201"/>
      <point x="334" y="266" type="qcurve"/>
      <point x="285" y="375" type="line"/>
      <point x="300" y="375" type="line"/>
      <point x="341" y="283"/>
      <point x="423" y="99"/>
      <point x="463" y="8" type="qcurve"/>
      <point x="620" y="361" type="line"/>
      <point x="566" y="361" type="line"/>
    </contour>
  </outline>
</glyph>
<glyph name="x" format="2">
  <advance width="423"/>
  <unicode hex="0078"/>
  <outline>
    <contour>
      <point x="19" y="374" type="line"/>
      <point x="58" y="374" type="line"/>
      <point x="58" y="375" type="line"/>
      <point x="76" y="375" type="line"/>
      <point x="76" y="374" type="line"/>
      <point x="157" y="374" type="line"/>
      <point x="157" y="360" type="line"/>
      <point x="86" y="360" type="line"/>
      <point x="205" y="198" type="line"/>
      <point x="236" y="242"/>
      <point x="298" y="328"/>
      <point x="330" y="372" type="qcurve"/>
      <point x="330" y="374" type="line"/>
      <point x="398" y="374" type="line"/>
      <point x="398" y="360" type="line"/>
      <point x="338" y="360" type="line"/>
      <point x="306" y="316"/>
      <point x="244" y="230"/>
      <point x="213" y="186" type="qcurve"/>
      <point x="339" y="14" type="line"/>
      <point x="404" y="14" type="line"/>
      <point x="404" y="0" type="line"/>
      <point x="251" y="0" type="line"/>
      <point x="251" y="14" type="line"/>
      <point x="323" y="14" type="line"/>
      <point x="205" y="175" type="line"/>
      <point x="80" y="0" type="line"/>
      <point x="22" y="0" type="line"/>
      <point x="22" y="14" type="line"/>
      <point x="72" y="14" type="line"/>
      <point x="104" y="57"/>
      <point x="164" y="143"/>
      <point x="196" y="187" type="qcurve"/>
      <point x="69" y="360" type="line"/>
      <point x="19" y="360" type="line"/>
    </contour>
  </outline>
</glyph>
<glyph name="z" format="2">
  <advance width="369"/>
  <unicode hex="007A"/>
  <outline>
    <contour>
      <point x="329" y="87" type="line"/>
      <point x="329" y="0" type="line"/>
      <point x="30" y="0" type="line"/>
      <point x="290" y="361" type="line"/>
      <point x="93" y="361" type="line"/>
      <point x="62" y="361"/>
      <point x="33" y="377"/>
      <point x="33" y="406" type="qcurve"/>
      <point x="33" y="410" type="line"/>
      <point x="46" y="410" type="line"/>
      <point x="46" y="398" type="line"/>
      <point x="46" y="389"/>
      <point x="62" y="375"/>
      <point x="79" y="375" type="qcurve"/>
      <point x="314" y="375" type="line"/>
      <point x="54" y="14" type="line"/>
      <point x="316" y="14" type="line"/>
      <point x="316" y="87" type="line"/>
    </contour>
  </outline>
</glyph>
<glyph name="braceright" format="2">
  <advance width="270"/>
  <unicode hex="007D"/>
  <outline>
    <contour>
      <point x="233" y="311" type="qcurve"/>
      <point x="233" y="287" type="line"/>
      <point x="201" y="285"/>
      <point x="169" y="244"/>
      <point x="155" y="189"/>
      <point x="154" y="133"/>
      <point x="154" y="116" type="qcurve"/>
      <point x="154" y="-30" type="line"/>
      <point x="154" y="-76"/>
      <point x="139" y="-125"/>
      <point x="115" y="-146"/>
      <point x="84" y="-148"/>
      <point x="68" y="-148" type="qcurve"/>
      <point x="31" y="-148" type="line"/>
      <point x="31" y="-134" type="line"/>
      <point x="88" y="-134" type="line"/>
      <point x="119" y="-134"/>
      <point x="140" y="-82"/>
      <point x="140" y="-22" type="qcurve"/>
      <point x="140" y="165" type="line"/>
      <point x="140" y="199"/>
      <point x="154" y="245"/>
      <point x="174" y="276"/>
      <point x="197" y="294"/>
      <point x="206" y="299" type="qcurve"/>
      <point x="193" y="306"/>
      <point x="169" y="326"/>
      <point x="151" y="363"/>
      <point x="140" y="423"/>
      <point x="140" y="470" type="qcurve"/>
      <point x="140" y="620" type="line"/>
      <point x="140" y="680"/>
      <point x="119" y="732"/>
      <point x="88" y="732" type="qcurve"/>
      <point x="31" y="732" type="line"/>
      <point x="31" y="746" type="line"/>
      <point x="68" y="746" type="line"/>
      <point x="84" y="746"/>
      <point x="115" y="743"/>
      <point x="139" y="722"/>
      <point x="154" y="674"/>
      <point x="154" y="628" type="qcurve"/>
      <point x="154" y="482" type="line"/>
      <point x="154" y="470"/>
      <point x="154" y="437"/>
      <point x="158" y="399"/>
      <point x="166" y="362"/>
      <point x="184" y="332"/>
      <point x="212" y="312"/>
    </contour>
  </outline>
</glyph>
<glyph name="asciitilde" format="2">
  <advance width="472"/>
  <unicode hex="007E"/>
  <outline>
    <contour>
      <point x="229" y="497" type="qcurve"/>
      <point x="213" y="515"/>
      <point x="189" y="527"/>
      <point x="175" y="527" type="qcurve"/>
      <point x="167" y="527"/>
      <point x="146" y="522"/>
      <point x="126" y="510"/>
      <point x="111" y="489"/>
      <point x="109" y="472" type="qcurve"/>
      <point x="96" y="474" type="line"/>
      <point x="97" y="492"/>
      <point x="113" y="518"/>
      <point x="136" y="534"/>
      <point x="164" y="541"/>
      <point x="178" y="541" type="qcurve"/>
      <point x="198" y="541"/>
      <point x="231" y="520"/>
      <point x="247" y="503" type="qcurve"/>
      <point x="263" y="485"/>
      <point x="287" y="473"/>
      <point x="301" y="473" type="qcurve"/>
      <point x="309" y="473"/>
      <point x="330" y="478"/>
      <point x="350" y="490"/>
      <point x="365" y="511"/>
      <point x="367" y="528" type="qcurve"/>
      <point x="380" y="526" type="line"/>
      <point x="379" y="508"/>
      <point x="363" y="482"/>
      <point x="340" y="466"/>
      <point x="312" y="459"/>
      <point x="298" y="459" type="qcurve"/>
      <point x="278" y="459"/>
      <point x="245" y="480"/>
    </contour>
  </outline>
</glyph>
<glyph name="cent" format="2">
  <advance width="430"/>
  <unicode hex="00A2"/>
  <outline>
    <contour>
      <point x="368" y="340" type="qcurve"/>
      <point x="368" y="288" type="line"/>
      <point x="355" y="288" type="line"/>
      <point x="355" y="331" type="line"/>
      <point x="332" y="349"/>
      <point x="276" y="369"/>
      <point x="245" y="369" type="qcurve"/>
      <point x="244" y="369" type="line"/>
      <point x="244" y="8" type="line"/>
      <point x="245" y="8" type="line"/>
      <point x="277" y="8"/>
      <point x="335" y="29"/>
      <point x="358" y="47" type="qcurve"/>
      <point x="368" y="37" type="line"/>
      <point x="342" y="17"/>
      <point x="280" y="-6"/>
      <point x="245" y="-6" type="qcurve"/>
      <point x="244" y="-6" type="line"/>
      <point x="244" y="-68" type="line"/>
      <point x="230" y="-68" type="line"/>
      <point x="230" y="-5" type="line"/>
      <point x="192" y="-2"/>
      <point x="127" y="30"/>
      <point x="79" y="81"/>
      <point x="51" y="149"/>
      <point x="51" y="188" type="qcurve"/>
      <point x="51" y="227"/>
      <point x="79" y="295"/>
      <point x="127" y="347"/>
      <point x="192" y="379"/>
      <point x="230" y="382" type="qcurve"/>
      <point x="230" y="438" type="line"/>
      <point x="244" y="438" type="line"/>
      <point x="244" y="383" type="line"/>
      <point x="245" y="383" type="line"/>
      <point x="280" y="383"/>
      <point x="343" y="360"/>
    </contour>
    <contour>
      <point x="65" y="188" type="qcurve"/>
      <point x="65" y="152"/>
      <point x="90" y="89"/>
      <point x="135" y="41"/>
      <point x="195" y="11"/>
      <point x="230" y="8" type="qcurve"/>
      <point x="230" y="368" type="line"/>
      <point x="195" y="365"/>
      <point x="135" y="335"/>
      <point x="90" y="287"/>
      <point x="65" y="224"/>
    </contour>
  </outline>
</glyph>
<glyph name="yen" format="2">
  <advance width="726"/>
  <unicode hex="00A5"/>
  <outline>
    <contour>
      <point x="368" y="262" type="line"/>
      <point x="368" y="114" type="line"/>
      <point x="526" y="114" type="line"/>
      <point x="526" y="100" type="line"/>
      <point x="368" y="100" type="line"/>
      <point x="368" y="14" type="line"/>
      <point x="448" y="14" type="line"/>
      <point x="448" y="0" type="line"/>
      <point x="274" y="0" type="line"/>
      <point x="274" y="14" type="line"/>
      <point x="354" y="14" type="line"/>
      <point x="354" y="100" type="line"/>
      <point x="193" y="100" type="line"/>
      <point x="193" y="114" type="line"/>
      <point x="354" y="114" type="line"/>
      <point x="354" y="262" type="line"/>
      <point x="353" y="262"/>
      <point x="353" y="263" type="qcurve"/>
      <point x="193" y="263" type="line"/>
      <point x="193" y="277" type="line"/>
      <point x="345" y="277" type="line"/>
      <point x="99" y="686" type="line"/>
      <point x="34" y="686" type="line"/>
      <point x="34" y="700" type="line"/>
      <point x="208" y="700" type="line"/>
      <point x="208" y="686" type="line"/>
      <point x="116" y="686" type="line"/>
      <point x="175" y="588"/>
      <point x="292" y="396"/>
      <point x="349" y="298" type="qcurve"/>
      <point x="362" y="272" type="line"/>
      <point x="373" y="298" type="line"/>
      <point x="604" y="686" type="line"/>
      <point x="513" y="686" type="line"/>
      <point x="513" y="700" type="line"/>
      <point x="693" y="700" type="line"/>
      <point x="693" y="686" type="line"/>
      <point x="621" y="686" type="line"/>
      <point x="377" y="277" type="line"/>
      <point x="526" y="277" type="line"/>
      <point x="526" y="263" type="line"/>
      <point x="368" y="263" type="line"/>
    </contour>
  </outline>
</glyph>
<glyph name="brokenbar" format="2">
  <advance width="224"/>
  <unicode hex="00A6"/>
  <outline>
    <contour>
      <point x="119" y="-233" type="line"/>
      <point x="105" y="-233" type="line"/>
      <point x="105" y="117" type="line"/>
      <point x="119" y="117" type="line"/>
    </contour>
    <contour>
      <point x="119" y="350" type="line"/>
      <point x="105" y="350" type="line"/>
      <point x="105" y="700" type="line"/>
      <point x="119" y="700" type="line"/>
    </contour>
  </outline>
</glyph>
<glyph name="copyright" format="2">
  <advance width="664"/>
  <unicode hex="00A9"/>
  <outline>
    <contour>
      <point x="332" y="118" type="qcurve"/>
      <point x="278" y="118"/>
      <point x="185" y="156"/>
      <point x="116" y="224"/>
      <point x="77" y="317"/>
      <point x="77" y="372" type="qcurve"/>
      <point x="77" y="427"/>
      <point x="116" y="521"/>
      <point x="185" y="589"/>
      <point x="278" y="627"/>
      <point x="332" y="627" type="qcurve"/>
      <point x="386" y="627"/>
      <point x="479" y="589"/>
      <point x="548" y="521"/>
      <point x="587" y="427"/>
      <point x="587" y="372" type="qcurve"/>
      <point x="587" y="317"/>
      <point x="548" y="224"/>
      <point x="479" y="156"/>
      <point x="386" y="118"/>
    </contour>
    <contour>
      <point x="331" y="132" type="qcurve"/>
      <point x="381" y="132"/>
      <point x="469" y="168"/>
      <point x="535" y="233"/>
      <point x="573" y="320"/>
      <point x="573" y="371" type="qcurve"/>
      <point x="573" y="423"/>
      <point x="535" y="512"/>
      <point x="469" y="577"/>
      <point x="381" y="613"/>
      <point x="331" y="613" type="qcurve"/>
      <point x="282" y="613"/>
      <point x="195" y="577"/>
      <point x="129" y="512"/>
      <point x="91" y="423"/>
      <point x="91" y="371" type="qcurve"/>
      <point x="91" y="320"/>
      <point x="129" y="233"/>
      <point x="195" y="168"/>
      <point x="282" y="132"/>
    </contour>
    <contour>
      <point x="417" y="480" type="line"/>
      <point x="417" y="511" type="line"/>
      <point x="382" y="531"/>
      <point x="341" y="531" type="qcurve"/>
      <point x="309" y="531"/>
      <point x="253" y="506"/>
      <point x="211" y="464"/>
      <point x="186" y="406"/>
      <point x="186" y="373" type="qcurve"/>
      <point x="186" y="342"/>
      <point x="208" y="287"/>
      <point x="247" y="245"/>
      <point x="303" y="220"/>
      <point x="338" y="220" type="qcurve"/>
      <point x="361" y="220"/>
      <point x="402" y="231"/>
      <point x="419" y="241" type="qcurve"/>
      <point x="423" y="236" type="line"/>
      <point x="405" y="225"/>
      <point x="364" y="213"/>
      <point x="340" y="213" type="qcurve"/>
      <point x="304" y="213"/>
      <point x="245" y="239"/>
      <point x="203" y="283"/>
      <point x="180" y="341"/>
      <point x="180" y="374" type="qcurve"/>
      <point x="180" y="408"/>
      <point x="205" y="468"/>
      <point x="249" y="512"/>
      <point x="308" y="537"/>
      <point x="341" y="537" type="qcurve"/>
      <point x="385" y="537"/>
      <point x="424" y="515" type="qcurve"/>
      <point x="424" y="480" type="line"/>
    </contour>
  </outline>
</glyph>
<glyph name="ordfeminine" format="2">
  <advance width="461"/>
  <unicode hex="00AA"/>
  <outline>
    <contour>
      <point x="341" y="316" type="line"/>
      <point x="398" y="316" type="line"/>
      <point x="398" y="306" type="line"/>
      <point x="330" y="306" type="line"/>
      <point x="330" y="345" type="line"/>
      <point x="330" y="356"/>
      <point x="331" y="379"/>
      <point x="331" y="390" type="qcurve"/>
      <point x="316" y="351"/>
      <point x="245" y="302"/>
      <point x="200" y="302" type="qcurve"/>
      <point x="171" y="302"/>
      <point x="120" y="324"/>
      <point x="82" y="362"/>
      <point x="60" y="413"/>
      <point x="60" y="442" type="qcurve"/>
      <point x="60" y="471"/>
      <point x="82" y="522"/>
      <point x="120" y="560"/>
      <point x="171" y="582"/>
      <point x="200" y="582" type="qcurve"/>
      <point x="245" y="582"/>
      <point x="315" y="532"/>
      <point x="330" y="494" type="qcurve"/>
      <point x="330" y="514"/>
      <point x="332" y="556"/>
      <point x="333" y="576" type="qcurve"/>
      <point x="341" y="576" type="line"/>
    </contour>
    <contour>
      <point x="69" y="442" type="qcurve"/>
      <point x="69" y="415"/>
      <point x="89" y="367"/>
      <point x="125" y="332"/>
      <point x="172" y="312"/>
      <point x="199" y="312" type="qcurve"/>
      <point x="226" y="312"/>
      <point x="274" y="332"/>
      <point x="309" y="367"/>
      <point x="330" y="415"/>
      <point x="330" y="442" type="qcurve"/>
      <point x="330" y="469"/>
      <point x="309" y="516"/>
      <point x="274" y="552"/>
      <point x="226" y="572"/>
      <point x="199" y="572" type="qcurve"/>
      <point x="172" y="572"/>
      <point x="125" y="552"/>
      <point x="89" y="516"/>
      <point x="69" y="469"/>
    </contour>
  </outline>
</glyph>
<glyph name="logicalnot" format="2">
  <advance width="557"/>
  <unicode hex="00AC"/>
  <outline>
    <contour>
      <point x="461" y="148" type="line"/>
      <point x="461" y="227" type="line"/>
      <point x="115" y="227" type="line"/>
      <point x="115" y="241" type="line"/>
      <point x="475" y="241" type="line"/>
      <point x="475" y="148" type="line"/>
    </contour>
  </outline>
</glyph>
<glyph name="degree" format="2">
  <advance width="287"/>
  <unicode hex="00B0"/>
  <outline>
    <contour>
      <point x="144" y="498" type="qcurve"/>
      <point x="170" y="498"/>
      <point x="206" y="534"/>
      <point x="206" y="560" type="qcurve"/>
      <point x="206" y="586"/>
      <point x="170" y="622"/>
      <point x="144" y="622" type="qcurve"/>
      <point x="118" y="622"/>
      <point x="81" y="586"/>
      <point x="81" y="560" type="qcurve"/>
      <point x="81" y="534"/>
      <point x="118" y="498"/>
    </contour>
    <contour>
      <point x="67" y="559" type="qcurve"/>
      <point x="67" y="592"/>
      <point x="111" y="636"/>
      <point x="144" y="636" type="qcurve"/>
      <point x="176" y="636"/>
      <point x="220" y="592"/>
      <point x="220" y="559" type="qcurve"/>
      <point x="220" y="527"/>
      <point x="176" y="484"/>
      <point x="144" y="484" type="qcurve"/>
      <point x="111" y="484"/>
      <point x="67" y="527"/>
    </contour>
  </outline>
</glyph>
<glyph name="twosuperior" format="2">
  <advance width="345"/>
  <unicode hex="00B2"/>
  <outline>
    <contour>
      <point x="96" y="382" type="qcurve"/>
      <point x="268" y="382" type="line"/>
      <point x="268" y="448" type="line"/>
      <point x="274" y="448" type="line"/>
      <point x="274" y="375" type="line"/>
      <point x="78" y="375" type="line"/>
      <point x="110" y="405"/>
      <point x="170" y="465"/>
      <point x="217" y="522"/>
      <point x="245" y="575"/>
      <point x="245" y="598" type="qcurve"/>
      <point x="245" y="626"/>
      <point x="229" y="662"/>
      <point x="205" y="684"/>
      <point x="177" y="693"/>
      <point x="165" y="693" type="qcurve"/>
      <point x="141" y="693"/>
      <point x="109" y="676"/>
      <point x="91" y="650"/>
      <point x="84" y="620"/>
      <point x="84" y="607" type="qcurve"/>
      <point x="84" y="572"/>
      <point x="104" y="550" type="qcurve"/>
      <point x="99" y="546" type="line"/>
      <point x="88" y="558"/>
      <point x="77" y="587"/>
      <point x="77" y="607" type="qcurve"/>
      <point x="77" y="646"/>
      <point x="122" y="700"/>
      <point x="165" y="700" type="qcurve"/>
      <point x="203" y="700"/>
      <point x="252" y="646"/>
      <point x="252" y="604" type="qcurve"/>
      <point x="252" y="575"/>
      <point x="223" y="519"/>
      <point x="177" y="463"/>
      <point x="122" y="409"/>
    </contour>
  </outline>
</glyph>
<glyph name="acute" format="2">
  <advance width="218"/>
  <unicode hex="00B4"/>
  <outline>
    <contour>
      <point x="100" y="479" type="line"/>
      <point x="190" y="612" type="line"/>
      <point x="206" y="612" type="line"/>
      <point x="116" y="479" type="line"/>
    </contour>
  </outline>
</glyph>
<glyph name="mu" format="2">
  <advance width="527"/>
  <unicode hex="00B5"/>
  <outline>
    <contour>
      <point x="393" y="155" type="qcurve"/>
      <point x="393" y="361" type="line"/>
      <point x="312" y="361" type="line"/>
      <point x="312" y="375" type="line"/>
      <point x="407" y="375" type="line"/>
      <point x="407" y="14" type="line"/>
      <point x="487" y="14" type="line"/>
      <point x="487" y="0" type="line"/>
      <point x="397" y="0" type="line"/>
      <point x="396" y="98" type="line"/>
      <point x="376" y="50"/>
      <point x="287" y="-7"/>
      <point x="231" y="-7" type="qcurve"/>
      <point x="194" y="-7"/>
      <point x="142" y="24"/>
      <point x="128" y="50" type="qcurve"/>
      <point x="128" y="-201" type="line"/>
      <point x="115" y="-201" type="line"/>
      <point x="115" y="100" type="line"/>
      <point x="115" y="105" type="line"/>
      <point x="115" y="361" type="line"/>
      <point x="35" y="361" type="line"/>
      <point x="35" y="375" type="line"/>
      <point x="129" y="375" type="line"/>
      <point x="129" y="98" type="line"/>
      <point x="131" y="62"/>
      <point x="180" y="9"/>
      <point x="224" y="7" type="qcurve"/>
      <point x="258" y="7"/>
      <point x="319" y="29"/>
      <point x="365" y="68"/>
      <point x="393" y="123"/>
    </contour>
  </outline>
</glyph>
<glyph name="periodcentered" format="2">
  <advance width="184"/>
  <unicode hex="00B7"/>
  <outline>
    <contour>
      <point x="72" y="280" type="qcurve"/>
      <point x="72" y="288"/>
      <point x="84" y="300"/>
      <point x="92" y="300" type="qcurve"/>
      <point x="100" y="300"/>
      <point x="112" y="288"/>
      <point x="112" y="280" type="qcurve"/>
      <point x="112" y="272"/>
      <point x="100" y="260"/>
      <point x="92" y="260" type="qcurve"/>
      <point x="84" y="260"/>
      <point x="72" y="272"/>
    </contour>
  </outline>
</glyph>
<glyph name="onesuperior" format="2">
  <advance width="186"/>
  <unicode hex="00B9"/>
  <outline>
    <contour>
      <point x="46" y="694" type="line"/>
      <point x="46" y="700" type="line"/>
      <point x="104" y="700" type="line"/>
      <point x="104" y="401" type="line"/>
      <point x="97" y="401" type="line"/>
      <point x="97" y="694" type="line"/>
    </contour>
  </outline>
</glyph>
<glyph name="guillemotright" format="2">
  <advance width="457"/>
  <unicode hex="00BB"/>
  <outline>
    <contour>
      <point x="65" y="93" type="line"/>
      <point x="207" y="239" type="line"/>
      <point x="65" y="383" type="line"/>
      <point x="65" y="400" type="line"/>
      <point x="236" y="239" type="line"/>
      <point x="65" y="77" type="line"/>
    </contour>
    <contour>
      <point x="236" y="93" type="line"/>
      <point x="378" y="239" type="line"/>
      <point x="236" y="383" type="line"/>
      <point x="236" y="400" type="line"/>
      <point x="407" y="239" type="line"/>
      <point x="236" y="77" type="line"/>
    </contour>
  </outline>
</glyph>
<glyph name="threequarters" format="2">
  <advance width="992"/>
  <unicode hex="00BE"/>
  <outline>
    <contour>
      <point x="939" y="10" type="line"/>
      <point x="939" y="0" type="line"/>
      <point x="809" y="0" type="line"/>
      <point x="809" y="10" type="line"/>
      <point x="868" y="10" type="line"/>
      <point x="868" y="136" type="line"/>
      <point x="606" y="136" type="line"/>
      <point x="674" y="225"/>
      <point x="809" y="401"/>
      <point x="878" y="490" type="qcurve"/>
      <point x="878" y="147" type="line"/>
      <point x="951" y="147" type="line"/>
      <point x="951" y="136" type="line"/>
      <point x="878" y="136" type="line"/>
      <point x="878" y="10" type="line"/>
    </contour>
    <contour>
      <point x="868" y="459" type="line"/>
      <point x="628" y="147" type="line"/>
      <point x="868" y="147" type="line"/>
    </contour>
    <contour>
      <point x="67" y="649" type="line"/>
      <point x="67" y="708" type="line"/>
      <point x="313" y="708" type="line"/>
      <point x="160" y="513" type="line"/>
      <point x="195" y="515"/>
      <point x="257" y="493"/>
      <point x="304" y="451"/>
      <point x="332" y="392"/>
      <point x="332" y="357" type="qcurve"/>
      <point x="332" y="324"/>
      <point x="307" y="267"/>
      <point x="264" y="225"/>
      <point x="207" y="200"/>
      <point x="174" y="200" type="qcurve"/>
      <point x="139" y="200"/>
      <point x="81" y="228"/>
      <point x="60" y="251" type="qcurve"/>
      <point x="67" y="261" type="line"/>
      <point x="86" y="238"/>
      <point x="140" y="211"/>
      <point x="172" y="211" type="qcurve"/>
      <point x="202" y="211"/>
      <point x="257" y="234"/>
      <point x="297" y="274"/>
      <point x="321" y="327"/>
      <point x="321" y="357" type="qcurve"/>
      <point x="321" y="387"/>
      <point x="297" y="440"/>
      <point x="257" y="479"/>
      <point x="202" y="502"/>
      <point x="172" y="502" type="qcurve"/>
      <point x="147" y="502"/>
      <point x="125" y="485" type="qcurve"/>
      <point x="289" y="697" type="line"/>
      <point x="78" y="697" type="line"/>
      <point x="78" y="649" type="line"/>
    </contour>
    <contour>
      <point x="366" y="-19" type="line"/>
      <point x="644" y="736" type="line"/>
      <point x="658" y="736" type="line"/>
      <point x="380" y="-19" type="line"/>
    </contour>
  </outline>
</glyph>
<glyph name="Aring" format="2">
  <advance width="718"/>
  <unicode hex="00C5"/>
  <outline>
    <contour>
      <point x="74" y="14" type="line"/>
      <point x="359" y="732" type="line"/>
      <point x="643" y="14" type="line"/>
      <point x="720" y="14" type="line"/>
      <point x="720" y="0" type="line"/>
      <point x="546" y="0" type="line"/>
      <point x="546" y="14" type="line"/>
      <point x="628" y="14" type="line"/>
      <point x="508" y="318" type="line"/>
      <point x="209" y="318" type="line"/>
      <point x="89" y="14" type="line"/>
      <point x="176" y="14" type="line"/>
      <point x="176" y="0" type="line"/>
      <point x="2" y="0" type="line"/>
      <point x="2" y="14" type="line"/>
    </contour>
    <contour>
      <point x="215" y="332" type="line"/>
      <point x="503" y="332" type="line"/>
      <point x="368" y="675" type="line"/>
      <point x="367" y="680"/>
      <point x="365" y="684" type="qcurve"/>
      <point x="363" y="688"/>
      <point x="360" y="697"/>
      <point x="359" y="700" type="qcurve"/>
      <point x="357" y="697"/>
      <point x="355" y="688"/>
      <point x="353" y="684" type="qcurve"/>
      <point x="351" y="680"/>
      <point x="350" y="675" type="qcurve"/>
    </contour>
    <contour>
      <point x="298" y="802" type="qcurve"/>
      <point x="298" y="829"/>
      <point x="334" y="865"/>
      <point x="361" y="865" type="qcurve"/>
      <point x="388" y="865"/>
      <point x="424" y="829"/>
      <point x="424" y="802" type="qcurve"/>
      <point x="424" y="775"/>
      <point x="388" y="739"/>
      <point x="361" y="739" type="qcurve"/>
      <point x="334" y="739"/>
      <point x="298" y="775"/>
    </contour>
    <contour>
      <point x="312" y="802" type="qcurve"/>
      <point x="312" y="782"/>
      <point x="341" y="753"/>
      <point x="361" y="753" type="qcurve"/>
      <point x="381" y="753"/>
      <point x="410" y="782"/>
      <point x="410" y="802" type="qcurve"/>
      <point x="410" y="822"/>
      <point x="381" y="851"/>
      <point x="361" y="851" type="qcurve"/>
      <point x="341" y="851"/>
      <point x="312" y="822"/>
    </contour>
  </outline>
</glyph>
<glyph name="AE" format="2">
  <advance width="687"/>
  <unicode hex="00C6"/>
  <outline>
    <contour>
      <point x="348" y="0" type="line"/>
      <point x="348" y="318" type="line"/>
      <point x="211" y="318" type="line"/>
      <point x="91" y="14" type="line"/>
      <point x="178" y="14" type="line"/>
      <point x="178" y="0" type="line"/>
      <point x="4" y="0" type="line"/>
      <point x="4" y="14" type="line"/>
      <point x="76" y="14" type="line"/>
      <point x="348" y="700" type="line"/>
      <point x="605" y="700" type="line"/>
      <point x="605" y="701" type="line"/>
      <point x="619" y="701" type="line"/>
      <point x="619" y="612" type="line"/>
      <point x="605" y="612" type="line"/>
      <point x="605" y="686" type="line"/>
      <point x="362" y="686" type="line"/>
      <point x="362" y="360" type="line"/>
      <point x="580" y="360" type="line"/>
      <point x="580" y="346" type="line"/>
      <point x="362" y="346" type="line"/>
      <point x="362" y="332" type="line"/>
      <point x="378" y="332" type="line"/>
      <point x="369" y="318" type="line"/>
      <point x="362" y="318" type="line"/>
      <point x="362" y="14" type="line"/>
      <point x="619" y="14" type="line"/>
      <point x="619" y="89" type="line"/>
      <point x="633" y="89" type="line"/>
      <point x="633" y="0" type="line"/>
    </contour>
    <contour>
      <point x="348" y="332" type="line"/>
      <point x="348" y="665" type="line"/>
      <point x="217" y="332" type="line"/>
    </contour>
  </outline>
</glyph>
<glyph name="Ccedilla" format="2">
  <advance width="656"/>
  <unicode hex="00C7"/>
  <outline>
    <contour>
      <point x="588" y="582" type="line"/>
      <point x="588" y="649" type="line"/>
      <point x="550" y="671"/>
      <point x="464" y="694"/>
      <point x="419" y="694" type="qcurve"/>
      <point x="348" y="694"/>
      <point x="223" y="640"/>
      <point x="130" y="545"/>
      <point x="76" y="418"/>
      <point x="76" y="345" type="qcurve"/>
      <point x="76" y="277"/>
      <point x="124" y="154"/>
      <point x="212" y="61"/>
      <point x="336" y="6"/>
      <point x="412" y="6" type="qcurve"/>
      <point x="464" y="6"/>
      <point x="553" y="31"/>
      <point x="592" y="54" type="qcurve"/>
      <point x="601" y="42" type="line"/>
      <point x="562" y="19"/>
      <point x="472" y="-7"/>
      <point x="419" y="-8" type="qcurve"/>
      <point x="420" y="-33"/>
      <point x="447" y="-53"/>
      <point x="460" y="-61" type="qcurve"/>
      <point x="483" y="-76"/>
      <point x="502" y="-113"/>
      <point x="502" y="-127" type="qcurve"/>
      <point x="502" y="-178"/>
      <point x="451" y="-223"/>
      <point x="418" y="-223" type="qcurve"/>
      <point x="392" y="-223"/>
      <point x="347" y="-194"/>
      <point x="337" y="-165" type="qcurve"/>
      <point x="352" y="-161" type="line"/>
      <point x="358" y="-182"/>
      <point x="393" y="-209"/>
      <point x="418" y="-209" type="qcurve"/>
      <point x="449" y="-209"/>
      <point x="488" y="-168"/>
      <point x="488" y="-137" type="qcurve"/>
      <point x="488" y="-109"/>
      <point x="462" y="-79"/>
      <point x="431" y="-58"/>
      <point x="405" y="-36"/>
      <point x="405" y="-16" type="qcurve"/>
      <point x="405" y="-7" type="line"/>
      <point x="328" y="-5"/>
      <point x="201" y="52"/>
      <point x="111" y="148"/>
      <point x="62" y="275"/>
      <point x="62" y="346" type="qcurve"/>
      <point x="62" y="422"/>
      <point x="118" y="554"/>
      <point x="215" y="652"/>
      <point x="345" y="708"/>
      <point x="419" y="708" type="qcurve"/>
      <point x="470" y="708"/>
      <point x="561" y="682"/>
      <point x="602" y="658" type="qcurve"/>
      <point x="602" y="582" type="line"/>
    </contour>
  </outline>
</glyph>
<glyph name="Egrave" format="2">
  <advance width="626"/>
  <unicode hex="00C8"/>
  <outline>
    <contour>
      <point x="540" y="612" type="line"/>
      <point x="540" y="686" type="line"/>
      <point x="153" y="686" type="line"/>
      <point x="153" y="360" type="line"/>
      <point x="515" y="360" type="line"/>
      <point x="515" y="346" type="line"/>
      <point x="153" y="346" type="line"/>
      <point x="153" y="14" type="line"/>
      <point x="554" y="14" type="line"/>
      <point x="554" y="89" type="line"/>
      <point x="568" y="89" type="line"/>
      <point x="568" y="0" type="line"/>
      <point x="63" y="0" type="line"/>
      <point x="63" y="14" type="line"/>
      <point x="139" y="14" type="line"/>
      <point x="139" y="686" type="line"/>
      <point x="63" y="686" type="line"/>
      <point x="63" y="700" type="line"/>
      <point x="540" y="700" type="line"/>
      <point x="540" y="701" type="line"/>
      <point x="554" y="701" type="line"/>
      <point x="554" y="612" type="line"/>
    </contour>
    <contour>
      <point x="287" y="868" type="line"/>
      <point x="377" y="735" type="line"/>
      <point x="361" y="735" type="line"/>
      <point x="271" y="868" type="line"/>
    </contour>
  </outline>
</glyph>
<glyph name="Eacute" format="2">
  <advance width="626"/>
  <unicode hex="00C9"/>
  <outline>
    <contour>
      <point x="540" y="612" type="line"/>
      <point x="540" y="686" type="line"/>
      <point x="153" y="686" type="line"/>
      <point x="153" y="360" type="line"/>
      <point x="515" y="360" type="line"/>
      <point x="515" y="346" type="line"/>
      <point x="153" y="346" type="line"/>
      <point x="153" y="14" type="line"/>
      <point x="554" y="14" type="line"/>
      <point x="554" y="89" type="line"/>
      <point x="568" y="89" type="line"/>
      <point x="568" y="0" type="line"/>
      <point x="63" y="0" type="line"/>
      <point x="63" y="14" type="line"/>
      <point x="139" y="14" type="line"/>
      <point x="139" y="686" type="line"/>
      <point x="63" y="686" type="line"/>
      <point x="63" y="700" type="line"/>
      <point x="540" y="700" type="line"/>
      <point x="540" y="701" type="line"/>
      <point x="554" y="701" type="line"/>
      <point x="554" y="612" type="line"/>
    </contour>
    <contour>
      <point x="306" y="735" type="line"/>
      <point x="396" y="868" type="line"/>
      <point x="412" y="868" type="line"/>
      <point x="322" y="735" type="line"/>
    </contour>
  </outline>
</glyph>
<glyph name="Ecircumflex" format="2">
  <advance width="626"/>
  <unicode hex="00CA"/>
  <outline>
    <contour>
      <point x="540" y="612" type="line"/>
      <point x="540" y="686" type="line"/>
      <point x="153" y="686" type="line"/>
      <point x="153" y="360" type="line"/>
      <point x="515" y="360" type="line"/>
      <point x="515" y="346" type="line"/>
      <point x="153" y="346" type="line"/>
      <point x="153" y="14" type="line"/>
      <point x="554" y="14" type="line"/>
      <point x="554" y="89" type="line"/>
      <point x="568" y="89" type="line"/>
      <point x="568" y="0" type="line"/>
      <point x="63" y="0" type="line"/>
      <point x="63" y="14" type="line"/>
      <point x="139" y="14" type="line"/>
      <point x="139" y="686" type="line"/>
      <point x="63" y="686" type="line"/>
      <point x="63" y="700" type="line"/>
      <point x="540" y="700" type="line"/>
      <point x="540" y="701" type="line"/>
      <point x="554" y="701" type="line"/>
      <point x="554" y="612" type="line"/>
    </contour>
    <contour>
      <point x="336" y="856" type="line"/>
      <point x="456" y="735" type="line"/>
      <point x="440" y="735" type="line"/>
      <point x="336" y="829" type="line"/>
      <point x="232" y="735" type="line"/>
      <point x="216" y="735" type="line"/>
    </contour>
  </outline>
</glyph>
<glyph name="Edieresis" format="2">
  <advance width="626"/>
  <unicode hex="00CB"/>
  <outline>
    <contour>
      <point x="540" y="612" type="line"/>
      <point x="540" y="686" type="line"/>
      <point x="153" y="686" type="line"/>
      <point x="153" y="360" type="line"/>
      <point x="515" y="360" type="line"/>
      <point x="515" y="346" type="line"/>
      <point x="153" y="346" type="line"/>
      <point x="153" y="14" type="line"/>
      <point x="554" y="14" type="line"/>
      <point x="554" y="89" type="line"/>
      <point x="568" y="89" type="line"/>
      <point x="568" y="0" type="line"/>
      <point x="63" y="0" type="line"/>
      <point x="63" y="14" type="line"/>
      <point x="139" y="14" type="line"/>
      <point x="139" y="686" type="line"/>
      <point x="63" y="686" type="line"/>
      <point x="63" y="700" type="line"/>
      <point x="540" y="700" type="line"/>
      <point x="540" y="701" type="line"/>
      <point x="554" y="701" type="line"/>
      <point x="554" y="612" type="line"/>
    </contour>
    <contour>
      <point x="252" y="755" type="qcurve"/>
      <point x="252" y="763"/>
      <point x="264" y="775"/>
      <point x="272" y="775" type="qcurve"/>
      <point x="280" y="775"/>
      <point x="292" y="763"/>
      <point x="292" y="755" type="qcurve"/>
      <point x="292" y="747"/>
      <point x="280" y="735"/>
      <point x="272" y="735" type="qcurve"/>
      <point x="264" y="735"/>
      <point x="252" y="747"/>
    </contour>
    <contour>
      <point x="417" y="755" type="qcurve"/>
      <point x="417" y="763"/>
      <point x="429" y="775"/>
      <point x="437" y="775" type="qcurve"/>
      <point x="445" y="775"/>
      <point x="457" y="763"/>
      <point x="457" y="755" type="qcurve"/>
      <point x="457" y="747"/>
      <point x="445" y="735"/>
      <point x="437" y="735" type="qcurve"/>
      <point x="429" y="735"/>
      <point x="417" y="747"/>
    </contour>
  </outline>
</glyph>
<glyph name="Igrave" format="2">
  <advance width="294"/>
  <unicode hex="00CC"/>
  <outline>
    <contour>
      <point x="237" y="700" type="line"/>
      <point x="237" y="686" type="line"/>
      <point x="154" y="686" type="line"/>
      <point x="154" y="14" type="line"/>
      <point x="237" y="14" type="line"/>
      <point x="237" y="0" type="line"/>
      <point x="63" y="0" type="line"/>
      <point x="63" y="14" type="line"/>
      <point x="140" y="14" type="line"/>
      <point x="140" y="686" type="line"/>
      <point x="63" y="686" type="line"/>
      <point x="63" y="700" type="line"/>
    </contour>
    <contour>
      <point x="119" y="885" type="line"/>
      <point x="209" y="752" type="line"/>
      <point x="193" y="752" type="line"/>
      <point x="103" y="885" type="line"/>
    </contour>
  </outline>
</glyph>
<glyph name="Idieresis" format="2">
  <advance width="294"/>
  <unicode hex="00CF"/>
  <outline>
    <contour>
      <point x="237" y="700" type="line"/>
      <point x="237" y="686" type="line"/>
      <point x="154" y="686" type="line"/>
      <point x="154" y="14" type="line"/>
      <point x="237" y="14" type="line"/>
      <point x="237" y="0" type="line"/>
      <point x="63" y="0" type="line"/>
      <point x="63" y="14" type="line"/>
      <point x="140" y="14" type="line"/>
      <point x="140" y="686" type="line"/>
      <point x="63" y="686" type="line"/>
      <point x="63" y="700" type="line"/>
    </contour>
    <contour>
      <point x="45" y="756" type="qcurve"/>
      <point x="45" y="764"/>
      <point x="57" y="776"/>
      <point x="65" y="776" type="qcurve"/>
      <point x="73" y="776"/>
      <point x="85" y="764"/>
      <point x="85" y="756" type="qcurve"/>
      <point x="85" y="748"/>
      <point x="73" y="736"/>
      <point x="65" y="736" type="qcurve"/>
      <point x="57" y="736"/>
      <point x="45" y="748"/>
    </contour>
    <contour>
      <point x="210" y="756" type="qcurve"/>
      <point x="210" y="764"/>
      <point x="222" y="776"/>
      <point x="230" y="776" type="qcurve"/>
      <point x="238" y="776"/>
      <point x="250" y="764"/>
      <point x="250" y="756" type="qcurve"/>
      <point x="250" y="748"/>
      <point x="238" y="736"/>
      <point x="230" y="736" type="qcurve"/>
      <point x="222" y="736"/>
      <point x="210" y="748"/>
    </contour>
  </outline>
</glyph>
<glyph name="Eth" format="2">
  <advance width="734"/>
  <unicode hex="00D0"/>
  <outline>
    <contour>
      <point x="84" y="360" type="line"/>
      <point x="142" y="360" type="line"/>
      <point x="142" y="686" type="line"/>
      <point x="66" y="686" type="line"/>
      <point x="66" y="700" type="line"/>
      <point x="285" y="700" type="line"/>
      <point x="391" y="700"/>
      <point x="538" y="635"/>
      <point x="630" y="533"/>
      <point x="671" y="409"/>
      <point x="671" y="350" type="qcurve"/>
      <point x="671" y="270"/>
      <point x="615" y="140"/>
      <point x="519" y="49"/>
      <point x="391" y="0"/>
      <point x="319" y="0" type="qcurve"/>
      <point x="66" y="0" type="line"/>
      <point x="66" y="14" type="line"/>
      <point x="142" y="14" type="line"/>
      <point x="142" y="346" type="line"/>
      <point x="84" y="346" type="line"/>
    </contour>
    <contour>
      <point x="325" y="14" type="line"/>
      <point x="392" y="14"/>
      <point x="513" y="61"/>
      <point x="605" y="148"/>
      <point x="658" y="273"/>
      <point x="658" y="350" type="qcurve"/>
      <point x="658" y="407"/>
      <point x="619" y="525"/>
      <point x="532" y="623"/>
      <point x="393" y="685"/>
      <point x="294" y="685" type="qcurve"/>
      <point x="156" y="685" type="line"/>
      <point x="156" y="360" type="line"/>
      <point x="365" y="360" type="line"/>
      <point x="365" y="346" type="line"/>
      <point x="156" y="346" type="line"/>
      <point x="156" y="14" type="line"/>
    </contour>
  </outline>
</glyph>
<glyph name="Ntilde" format="2">
  <advance width="837"/>
  <unicode hex="00D1"/>
  <outline>
    <contour>
      <point x="235" y="14" type="line"/>
      <point x="235" y="0" type="line"/>
      <point x="61" y="0" type="line"/>
      <point x="61" y="14" type="line"/>
      <point x="138" y="14" type="line"/>
      <point x="138" y="686" type="line"/>
      <point x="61" y="686" type="line"/>
      <point x="61" y="700" type="line"/>
      <point x="163" y="700" type="line"/>
      <point x="235" y="609"/>
      <point x="363" y="442"/>
      <point x="486" y="279"/>
      <point x="610" y="116"/>
      <point x="679" y="28" type="qcurve"/>
      <point x="698" y="2" type="line"/>
      <point x="695" y="34" type="line"/>
      <point x="695" y="687" type="line"/>
      <point x="610" y="687" type="line"/>
      <point x="610" y="701" type="line"/>
      <point x="784" y="701" type="line"/>
      <point x="784" y="687" type="line"/>
      <point x="709" y="687" type="line"/>
      <point x="709" y="-32" type="line"/>
      <point x="566" y="147"/>
      <point x="299" y="496"/>
      <point x="168" y="670" type="qcurve"/>
      <point x="149" y="696" type="line"/>
      <point x="152" y="664" type="line"/>
      <point x="152" y="14" type="line"/>
    </contour>
    <contour>
      <point x="425" y="776" type="qcurve"/>
      <point x="409" y="794"/>
      <point x="385" y="806"/>
      <point x="371" y="806" type="qcurve"/>
      <point x="363" y="806"/>
      <point x="342" y="801"/>
      <point x="322" y="789"/>
      <point x="307" y="768"/>
      <point x="305" y="751" type="qcurve"/>
      <point x="292" y="753" type="line"/>
      <point x="293" y="771"/>
      <point x="309" y="797"/>
      <point x="332" y="813"/>
      <point x="360" y="820"/>
      <point x="374" y="820" type="qcurve"/>
      <point x="394" y="820"/>
      <point x="427" y="799"/>
      <point x="443" y="782" type="qcurve"/>
      <point x="459" y="764"/>
      <point x="483" y="752"/>
      <point x="497" y="752" type="qcurve"/>
      <point x="505" y="752"/>
      <point x="526" y="757"/>
      <point x="546" y="769"/>
      <point x="561" y="790"/>
      <point x="563" y="807" type="qcurve"/>
      <point x="576" y="805" type="line"/>
      <point x="575" y="787"/>
      <point x="559" y="761"/>
      <point x="536" y="745"/>
      <point x="508" y="738"/>
      <point x="494" y="738" type="qcurve"/>
      <point x="474" y="738"/>
      <point x="441" y="759"/>
    </contour>
  </outline>
</glyph>
<glyph name="Ograve" format="2">
  <advance width="838"/>
  <unicode hex="00D2"/>
  <outline>
    <contour>
      <point x="61" y="349" type="qcurve"/>
      <point x="61" y="423"/>
      <point x="117" y="554"/>
      <point x="214" y="651"/>
      <point x="344" y="708"/>
      <point x="418" y="708" type="qcurve"/>
      <point x="492" y="708"/>
      <point x="623" y="651"/>
      <point x="720" y="554"/>
      <point x="777" y="423"/>
      <point x="777" y="349" type="qcurve"/>
      <point x="777" y="275"/>
      <point x="720" y="145"/>
      <point x="623" y="48"/>
      <point x="492" y="-8"/>
      <point x="418" y="-8" type="qcurve"/>
      <point x="344" y="-8"/>
      <point x="214" y="48"/>
      <point x="117" y="145"/>
      <point x="61" y="275"/>
    </contour>
    <contour>
      <point x="75" y="348" type="qcurve"/>
      <point x="75" y="277"/>
      <point x="129" y="153"/>
      <point x="221" y="60"/>
      <point x="345" y="6"/>
      <point x="415" y="6" type="qcurve"/>
      <point x="486" y="6"/>
      <point x="613" y="60"/>
      <point x="708" y="153"/>
      <point x="763" y="278"/>
      <point x="763" y="349" type="qcurve"/>
      <point x="763" y="420"/>
      <point x="708" y="545"/>
      <point x="614" y="639"/>
      <point x="489" y="694"/>
      <point x="418" y="694" type="qcurve"/>
      <point x="347" y="694"/>
      <point x="222" y="639"/>
      <point x="129" y="545"/>
      <point x="75" y="419"/>
    </contour>
    <contour>
      <point x="389" y="878" type="line"/>
      <point x="479" y="745" type="line"/>
      <point x="463" y="745" type="line"/>
      <point x="373" y="878" type="line"/>
    </contour>
  </outline>
</glyph>
<glyph name="multiply" format="2">
  <advance width="426"/>
  <unicode hex="00D7"/>
  <outline>
    <contour>
      <point x="335" y="0" type="line"/>
      <point x="212" y="123" type="line"/>
      <point x="90" y="0" type="line"/>
      <point x="80" y="10" type="line"/>
      <point x="202" y="133" type="line"/>
      <point x="81" y="254" type="line"/>
      <point x="91" y="264" type="line"/>
      <point x="212" y="143" type="line"/>
      <point x="335" y="265" type="line"/>
      <point x="345" y="255" type="line"/>
      <point x="222" y="133" type="line"/>
      <point x="345" y="10" type="line"/>
    </contour>
  </outline>
</glyph>
<glyph name="Udieresis" format="2">
  <advance width="698"/>
  <unicode hex="00DC"/>
  <outline>
    <contour>
      <point x="221" y="700" type="line"/>
      <point x="221" y="686" type="line"/>
      <point x="138" y="686" type="line"/>
      <point x="138" y="229" type="line"/>
      <point x="138" y="175"/>
      <point x="169" y="92"/>
      <point x="225" y="35"/>
      <point x="303" y="6"/>
      <point x="349" y="6" type="qcurve"/>
      <point x="394" y="6"/>
      <point x="472" y="35"/>
      <point x="528" y="92"/>
      <point x="560" y="175"/>
      <point x="560" y="229" type="qcurve"/>
      <point x="560" y="700" type="line"/>
      <point x="653" y="700" type="line"/>
      <point x="653" y="686" type="line"/>
      <point x="574" y="686" type="line"/>
      <point x="574" y="226" type="line"/>
      <point x="574" y="169"/>
      <point x="539" y="81"/>
      <point x="479" y="22"/>
      <point x="397" y="-8"/>
      <point x="349" y="-8" type="qcurve"/>
      <point x="301" y="-8"/>
      <point x="218" y="22"/>
      <point x="158" y="81"/>
      <point x="124" y="169"/>
      <point x="124" y="226" type="qcurve"/>
      <point x="124" y="686" type="line"/>
      <point x="47" y="686" type="line"/>
      <point x="47" y="700" type="line"/>
    </contour>
    <contour>
      <point x="254" y="755" type="qcurve"/>
      <point x="254" y="763"/>
      <point x="266" y="775"/>
      <point x="274" y="775" type="qcurve"/>
      <point x="282" y="775"/>
      <point x="294" y="763"/>
      <point x="294" y="755" type="qcurve"/>
      <point x="294" y="747"/>
      <point x="282" y="735"/>
      <point x="274" y="735" type="qcurve"/>
      <point x="266" y="735"/>
      <point x="254" y="747"/>
    </contour>
    <contour>
      <point x="419" y="755" type="qcurve"/>
      <point x="419" y="763"/>
      <point x="431" y="775"/>
      <point x="439" y="775" type="qcurve"/>
      <point x="447" y="775"/>
      <point x="459" y="763"/>
      <point x="459" y="755" type="qcurve"/>
      <point x="459" y="747"/>
      <point x="447" y="735"/>
      <point x="439" y="735" type="qcurve"/>
      <point x="431" y="735"/>
      <point x="419" y="747"/>
    </contour>
  </outline>
</glyph>
<glyph name="icircumflex" format="2">
  <advance width="217"/>
  <unicode hex="00EE"/>
  <outline>
    <contour>
      <point x="119" y="375" type="line"/>
      <point x="119" y="14" type="line"/>
      <point x="200" y="14" type="line"/>
      <point x="200" y="0" type="line"/>
      <point x="25" y="0" type="line"/>
      <point x="25" y="14" type="line"/>
      <point x="105" y="14" type="line"/>
      <point x="105" y="361" type="line"/>
      <point x="25" y="361" type="line"/>
      <point x="25" y="375" type="line"/>
    </contour>
    <contour>
      <point x="111" y="600" type="line"/>
      <point x="231" y="479" type="line"/>
      <point x="215" y="479" type="line"/>
      <point x="111" y="573" type="line"/>
      <point x="7" y="479" type="line"/>
      <point x="-9" y="479" type="line"/>
    </contour>
  </outline>
</glyph>
<glyph name="idieresis" format="2">
  <advance width="217"/>
  <unicode hex="00EF"/>
  <outline>
    <contour>
      <point x="119" y="14" type="line"/>
      <point x="200" y="14" type="line"/>
      <point x="200" y="0" type="line"/>
      <point x="25" y="0" type="line"/>
      <point x="25" y="14" type="line"/>
      <point x="105" y="14" type="line"/>
      <point x="105" y="361" type="line"/>
      <point x="25" y="361" type="line"/>
      <point x="25" y="375" type="line"/>
      <point x="119" y="375" type="line"/>
    </contour>
    <contour>
      <point x="9" y="500" type="qcurve"/>
      <point x="9" y="508"/>
      <point x="21" y="520"/>
      <point x="29" y="520" type="qcurve"/>
      <point x="37" y="520"/>
      <point x="49" y="508"/>
      <point x="49" y="500" type="qcurve"/>
      <point x="49" y="492"/>
      <point x="37" y="480"/>
      <point x="29" y="480" type="qcurve"/>
      <point x="21" y="480"/>
      <point x="9" y="492"/>
    </contour>
    <contour>
      <point x="174" y="500" type="qcurve"/>
      <point x="174" y="508"/>
      <point x="186" y="520"/>
      <point x="194" y="520" type="qcurve"/>
      <point x="202" y="520"/>
      <point x="214" y="508"/>
      <point x="214" y="500" type="qcurve"/>
      <point x="214" y="492"/>
      <point x="202" y="480"/>
      <point x="194" y="480" type="qcurve"/>
      <point x="186" y="480"/>
      <point x="174" y="492"/>
    </contour>
  </outline>
</glyph>
<glyph name="eth" format="2">
  <advance width="494"/>
  <unicode hex="00F0"/>
  <outline>
    <contour>
      <point x="45" y="188" type="qcurve"/>
      <point x="45" y="228"/>
      <point x="75" y="300"/>
      <point x="128" y="353"/>
      <point x="198" y="384"/>
      <point x="239" y="384" type="qcurve"/>
      <point x="292" y="384"/>
      <point x="380" y="332"/>
      <point x="406" y="290" type="qcurve"/>
      <point x="405" y="291"/>
      <point x="405" y="295" type="qcurve"/>
      <point x="399" y="323"/>
      <point x="372" y="396"/>
      <point x="328" y="480"/>
      <point x="267" y="572"/>
      <point x="225" y="620" type="qcurve"/>
      <point x="150" y="539" type="line"/>
      <point x="142" y="547" type="line"/>
      <point x="218" y="629" type="line"/>
      <point x="196" y="652"/>
      <point x="150" y="697"/>
      <point x="124" y="717" type="qcurve"/>
      <point x="130" y="726" type="line"/>
      <point x="178" y="690"/>
      <point x="226" y="637" type="qcurve"/>
      <point x="296" y="714" type="line"/>
      <point x="304" y="707" type="line"/>
      <point x="233" y="629" type="line"/>
      <point x="274" y="581"/>
      <point x="348" y="471"/>
      <point x="404" y="357"/>
      <point x="437" y="242"/>
      <point x="437" y="188" type="qcurve"/>
      <point x="437" y="171"/>
      <point x="435" y="160"/>
      <point x="433" y="163" type="qcurve"/>
      <point x="428" y="127"/>
      <point x="395" y="65"/>
      <point x="343" y="20"/>
      <point x="276" y="-6"/>
      <point x="239" y="-6" type="qcurve"/>
      <point x="198" y="-6"/>
      <point x="128" y="24"/>
      <point x="75" y="77"/>
      <point x="45" y="147"/>
    </contour>
    <contour>
      <point x="59" y="188" type="qcurve"/>
      <point x="59" y="150"/>
      <point x="87" y="85"/>
      <point x="136" y="36"/>
      <point x="201" y="8"/>
      <point x="239" y="8" type="qcurve"/>
      <point x="276" y="8"/>
      <point x="342" y="36"/>
      <point x="392" y="85"/>
      <point x="420" y="150"/>
      <point x="420" y="188" type="qcurve"/>
      <point x="420" y="225"/>
      <point x="392" y="291"/>
      <point x="342" y="341"/>
      <point x="276" y="369"/>
      <point x="239" y="369" type="qcurve"/>
      <point x="201" y="369"/>
      <point x="136" y="341"/>
      <point x="87" y="291"/>
      <point x="59" y="225"/>
    </contour>
  </outline>
</glyph>
<glyph name="ntilde" format="2">
  <advance width="488"/>
  <unicode hex="00F1"/>
  <outline>
    <contour>
      <point x="397" y="270" type="qcurve"/>
      <point x="397" y="14" type="line"/>
      <point x="477" y="14" type="line"/>
      <point x="477" y="0" type="line"/>
      <point x="304" y="0" type="line"/>
      <point x="304" y="14" type="line"/>
      <point x="383" y="14" type="line"/>
      <point x="383" y="277" type="line"/>
      <point x="381" y="313"/>
      <point x="332" y="366"/>
      <point x="288" y="368" type="qcurve"/>
      <point x="254" y="368"/>
      <point x="193" y="346"/>
      <point x="146" y="307"/>
      <point x="119" y="252"/>
      <point x="119" y="220" type="qcurve"/>
      <point x="119" y="14" type="line"/>
      <point x="200" y="14" type="line"/>
      <point x="200" y="0" type="line"/>
      <point x="25" y="0" type="line"/>
      <point x="25" y="14" type="line"/>
      <point x="105" y="14" type="line"/>
      <point x="105" y="361" type="line"/>
      <point x="25" y="361" type="line"/>
      <point x="25" y="375" type="line"/>
      <point x="114" y="375" type="line"/>
      <point x="116" y="277" type="line"/>
      <point x="136" y="324"/>
      <point x="224" y="382"/>
      <point x="281" y="382" type="qcurve"/>
      <point x="334" y="382"/>
      <point x="395" y="320"/>
    </contour>
    <contour>
      <point x="235" y="485" type="qcurve"/>
      <point x="219" y="503"/>
      <point x="195" y="515"/>
      <point x="181" y="515" type="qcurve"/>
      <point x="173" y="515"/>
      <point x="152" y="510"/>
      <point x="132" y="498"/>
      <point x="117" y="477"/>
      <point x="115" y="460" type="qcurve"/>
      <point x="102" y="462" type="line"/>
      <point x="103" y="480"/>
      <point x="119" y="506"/>
      <point x="142" y="522"/>
      <point x="170" y="529"/>
      <point x="184" y="529" type="qcurve"/>
      <point x="204" y="529"/>
      <point x="237" y="508"/>
      <point x="253" y="491" type="qcurve"/>
      <point x="269" y="473"/>
      <point x="293" y="461"/>
      <point x="307" y="461" type="qcurve"/>
      <point x="315" y="461"/>
      <point x="336" y="466"/>
      <point x="356" y="478"/>
      <point x="371" y="499"/>
      <point x="373" y="516" type="qcurve"/>
      <point x="386" y="514" type="line"/>
      <point x="385" y="496"/>
      <point x="369" y="470"/>
      <point x="346" y="454"/>
      <point x="318" y="447"/>
      <point x="304" y="447" type="qcurve"/>
      <point x="284" y="447"/>
      <point x="251" y="468"/>
    </contour>
  </outline>
</glyph>
<glyph name="otilde" format="2">
  <advance width="480"/>
  <unicode hex="00F5"/>
  <outline>
    <contour>
      <point x="45" y="188" type="qcurve"/>
      <point x="45" y="228"/>
      <point x="75" y="300"/>
      <point x="128" y="353"/>
      <point x="198" y="384"/>
      <point x="239" y="384" type="qcurve"/>
      <point x="279" y="384"/>
      <point x="351" y="353"/>
      <point x="404" y="300"/>
      <point x="435" y="228"/>
      <point x="435" y="188" type="qcurve"/>
      <point x="435" y="147"/>
      <point x="404" y="77"/>
      <point x="351" y="24"/>
      <point x="279" y="-6"/>
      <point x="239" y="-6" type="qcurve"/>
      <point x="198" y="-6"/>
      <point x="128" y="24"/>
      <point x="75" y="77"/>
      <point x="45" y="147"/>
    </contour>
    <contour>
      <point x="59" y="188" type="qcurve"/>
      <point x="59" y="150"/>
      <point x="87" y="85"/>
      <point x="136" y="36"/>
      <point x="201" y="8"/>
      <point x="239" y="8" type="qcurve"/>
      <point x="276" y="8"/>
      <point x="342" y="36"/>
      <point x="392" y="85"/>
      <point x="420" y="150"/>
      <point x="420" y="188" type="qcurve"/>
      <point x="420" y="225"/>
      <point x="392" y="291"/>
      <point x="342" y="341"/>
      <point x="276" y="369"/>
      <point x="239" y="369" type="qcurve"/>
      <point x="201" y="369"/>
      <point x="136" y="341"/>
      <point x="87" y="291"/>
      <point x="59" y="225"/>
    </contour>
    <contour>
      <point x="230" y="485" type="qcurve"/>
      <point x="214" y="503"/>
      <point x="190" y="515"/>
      <point x="176" y="515" type="qcurve"/>
      <point x="168" y="515"/>
      <point x="147" y="510"/>
      <point x="127" y="498"/>
      <point x="112" y="477"/>
      <point x="110" y="460" type="qcurve"/>
      <point x="97" y="462" type="line"/>
      <point x="98" y="480"/>
      <point x="114" y="506"/>
      <point x="137" y="522"/>
      <point x="165" y="529"/>
      <point x="179" y="529" type="qcurve"/>
      <point x="199" y="529"/>
      <point x="232" y="508"/>
      <point x="248" y="491" type="qcurve"/>
      <point x="264" y="473"/>
      <point x="288" y="461"/>
      <point x="302" y="461" type="qcurve"/>
      <point x="310" y="461"/>
      <point x="331" y="466"/>
      <point x="351" y="478"/>
      <point x="366" y="499"/>
      <point x="368" y="516" type="qcurve"/>
      <point x="381" y="514" type="line"/>
      <point x="380" y="496"/>
      <point x="364" y="470"/>
      <point x="341" y="454"/>
      <point x="313" y="447"/>
      <point x="299" y="447" type="qcurve"/>
      <point x="279" y="447"/>
      <point x="246" y="468"/>
    </contour>
  </outline>
</glyph>
<glyph name="odieresis" format="2">
  <advance width="480"/>
  <unicode hex="00F6"/>
  <outline>
    <contour>
      <point x="45" y="188" type="qcurve"/>
      <point x="45" y="228"/>
      <point x="75" y="300"/>
      <point x="128" y="353"/>
      <point x="198" y="384"/>
      <point x="239" y="384" type="qcurve"/>
      <point x="279" y="384"/>
      <point x="351" y="353"/>
      <point x="404" y="300"/>
      <point x="435" y="228"/>
      <point x="435" y="188" type="qcurve"/>
      <point x="435" y="147"/>
      <point x="404" y="77"/>
      <point x="351" y="24"/>
      <point x="279" y="-6"/>
      <point x="239" y="-6" type="qcurve"/>
      <point x="198" y="-6"/>
      <point x="128" y="24"/>
      <point x="75" y="77"/>
      <point x="45" y="147"/>
    </contour>
    <contour>
      <point x="59" y="188" type="qcurve"/>
      <point x="59" y="150"/>
      <point x="87" y="85"/>
      <point x="136" y="36"/>
      <point x="201" y="8"/>
      <point x="239" y="8" type="qcurve"/>
      <point x="276" y="8"/>
      <point x="342" y="36"/>
      <point x="392" y="85"/>
      <point x="420" y="150"/>
      <point x="420" y="188" type="qcurve"/>
      <point x="420" y="225"/>
      <point x="392" y="291"/>
      <point x="342" y="341"/>
      <point x="276" y="369"/>
      <point x="239" y="369" type="qcurve"/>
      <point x="201" y="369"/>
      <point x="136" y="341"/>
      <point x="87" y="291"/>
      <point x="59" y="225"/>
    </contour>
    <contour>
      <point x="306" y="500" type="qcurve"/>
      <point x="306" y="508"/>
      <point x="318" y="520"/>
      <point x="326" y="520" type="qcurve"/>
      <point x="334" y="520"/>
      <point x="346" y="508"/>
      <point x="346" y="500" type="qcurve"/>
      <point x="346" y="492"/>
      <point x="334" y="480"/>
      <point x="326" y="480" type="qcurve"/>
      <point x="318" y="480"/>
      <point x="306" y="492"/>
    </contour>
    <contour>
      <point x="141" y="500" type="qcurve"/>
      <point x="141" y="508"/>
      <point x="153" y="520"/>
      <point x="161" y="520" type="qcurve"/>
      <point x="169" y="520"/>
      <point x="181" y="508"/>
      <point x="181" y="500" type="qcurve"/>
      <point x="181" y="492"/>
      <point x="169" y="480"/>
      <point x="161" y="480" type="qcurve"/>
      <point x="153" y="480"/>
      <point x="141" y="492"/>
    </contour>
  </outline>
</glyph>
<glyph name="thorn" format="2">
  <advance width="518"/>
  <unicode hex="00FE"/>
  <outline>
    <contour>
      <point x="3" y="736" type="line"/>
      <point x="3" y="750" type="line"/>
      <point x="97" y="750" type="line"/>
      <point x="97" y="260" type="line"/>
      <point x="119" y="314"/>
      <point x="216" y="383"/>
      <point x="278" y="383" type="qcurve"/>
      <point x="318" y="383"/>
      <point x="389" y="352"/>
      <point x="442" y="300"/>
      <point x="472" y="228"/>
      <point x="472" y="188" type="qcurve"/>
      <point x="472" y="147"/>
      <point x="442" y="77"/>
      <point x="389" y="24"/>
      <point x="318" y="-6"/>
      <point x="278" y="-6" type="qcurve"/>
      <point x="247" y="-6"/>
      <point x="190" y="12"/>
      <point x="143" y="45"/>
      <point x="106" y="90"/>
      <point x="96" y="117" type="qcurve"/>
      <point x="96" y="101"/>
      <point x="97" y="70"/>
      <point x="97" y="54" type="qcurve"/>
      <point x="97" y="-167" type="line"/>
      <point x="178" y="-167" type="line"/>
      <point x="178" y="-181" type="line"/>
      <point x="3" y="-181" type="line"/>
      <point x="3" y="-167" type="line"/>
      <point x="83" y="-167" type="line"/>
      <point x="83" y="736" type="line"/>
    </contour>
    <contour>
      <point x="458" y="188" type="qcurve"/>
      <point x="458" y="225"/>
      <point x="430" y="291"/>
      <point x="381" y="341"/>
      <point x="315" y="369"/>
      <point x="278" y="369" type="qcurve"/>
      <point x="240" y="369"/>
      <point x="175" y="341"/>
      <point x="125" y="291"/>
      <point x="97" y="225"/>
      <point x="97" y="188" type="qcurve"/>
      <point x="97" y="150"/>
      <point x="125" y="85"/>
      <point x="175" y="36"/>
      <point x="240" y="8"/>
      <point x="278" y="8" type="qcurve"/>
      <point x="315" y="8"/>
      <point x="381" y="36"/>
      <point x="430" y="85"/>
      <point x="458" y="150"/>
    </contour>
  </outline>
</glyph>
<glyph name="Amacron" format="2">
  <advance width="718"/>
  <unicode hex="0100"/>
  <outline>
    <contour>
      <point x="2" y="14" type="line"/>
      <point x="2" y="0" type="line"/>
      <point x="176" y="0" type="line"/>
      <point x="176" y="14" type="line"/>
      <point x="89" y="14" type="line"/>
      <point x="209" y="318" type="line"/>
      <point x="508" y="318" type="line"/>
      <point x="628" y="14" type="line"/>
      <point x="546" y="14" type="line"/>
      <point x="546" y="0" type="line"/>
      <point x="720" y="0" type="line"/>
      <point x="720" y="14" type="line"/>
      <point x="643" y="14" type="line"/>
      <point x="359" y="732" type="line"/>
      <point x="74" y="14" type="line"/>
    </contour>
    <contour>
      <point x="350" y="675" type="line"/>
      <point x="351" y="680"/>
      <point x="353" y="684" type="qcurve"/>
      <point x="355" y="688"/>
      <point x="357" y="697"/>
      <point x="359" y="700" type="qcurve"/>
      <point x="360" y="697"/>
      <point x="363" y="688"/>
      <point x="365" y="684" type="qcurve"/>
      <point x="367" y="680"/>
      <point x="368" y="675" type="qcurve"/>
      <point x="503" y="332" type="line"/>
      <point x="215" y="332" type="line"/>
    </contour>
    <contour>
      <point x="245" y="752" type="line"/>
      <point x="245" y="766" type="line"/>
      <point x="475" y="766" type="line"/>
      <point x="475" y="752" type="line"/>
    </contour>
  </outline>
</glyph>
<glyph name="aogonek" format="2">
  <advance width="530"/>
  <unicode hex="0105"/>
  <outline>
    <contour>
      <point x="434" y="14" type="line"/>
      <point x="514" y="14" type="line"/>
      <point x="514" y="0" type="line"/>
      <point x="420" y="0" type="line"/>
      <point x="420" y="54" type="line"/>
      <point x="420" y="70"/>
      <point x="421" y="101"/>
      <point x="421" y="117" type="qcurve"/>
      <point x="410" y="90"/>
      <point x="374" y="45"/>
      <point x="327" y="12"/>
      <point x="270" y="-6"/>
      <point x="239" y="-6" type="qcurve"/>
      <point x="198" y="-6"/>
      <point x="128" y="24"/>
      <point x="75" y="77"/>
      <point x="45" y="147"/>
      <point x="45" y="188" type="qcurve"/>
      <point x="45" y="228"/>
      <point x="75" y="300"/>
      <point x="128" y="352"/>
      <point x="198" y="383"/>
      <point x="239" y="383" type="qcurve"/>
      <point x="301" y="383"/>
      <point x="398" y="314"/>
      <point x="420" y="260" type="qcurve"/>
      <point x="420" y="289"/>
      <point x="422" y="346"/>
      <point x="424" y="375" type="qcurve"/>
      <point x="434" y="375" type="line"/>
    </contour>
    <contour>
      <point x="58" y="188" type="qcurve"/>
      <point x="58" y="150"/>
      <point x="86" y="85"/>
      <point x="135" y="36"/>
      <point x="200" y="8"/>
      <point x="238" y="8" type="qcurve"/>
      <point x="275" y="8"/>
      <point x="341" y="36"/>
      <point x="391" y="85"/>
      <point x="419" y="150"/>
      <point x="419" y="188" type="qcurve"/>
      <point x="419" y="225"/>
      <point x="391" y="291"/>
      <point x="341" y="341"/>
      <point x="275" y="369"/>
      <point x="238" y="369" type="qcurve"/>
      <point x="200" y="369"/>
      <point x="135" y="341"/>
      <point x="86" y="291"/>
      <point x="58" y="225"/>
    </contour>
    <contour>
      <point x="429" y="0" type="line"/>
      <point x="415" y="0" type="line"/>
      <point x="415" y="-6" type="line"/>
      <point x="415" y="-32"/>
      <point x="387" y="-53"/>
      <point x="374" y="-61" type="qcurve"/>
      <point x="351" y="-76"/>
      <point x="332" y="-113"/>
      <point x="332" y="-127" type="qcurve"/>
      <point x="332" y="-178"/>
      <point x="383" y="-223"/>
      <point x="416" y="-223" type="qcurve"/>
      <point x="442" y="-223"/>
      <point x="487" y="-194"/>
      <point x="497" y="-165" type="qcurve"/>
      <point x="482" y="-161" type="line"/>
      <point x="476" y="-182"/>
      <point x="441" y="-209"/>
      <point x="416" y="-209" type="qcurve"/>
      <point x="385" y="-209"/>
      <point x="346" y="-168"/>
      <point x="346" y="-137" type="qcurve"/>
      <point x="346" y="-109"/>
      <point x="372" y="-79"/>
      <point x="403" y="-58"/>
      <point x="429" y="-36"/>
      <point x="429" y="-16" type="qcurve"/>
    </contour>
  </outline>
</glyph>
<glyph name="ccircumflex" format="2">
  <advance width="399"/>
  <unicode hex="0109"/>
  <outline>
    <contour>
      <point x="362" y="340" type="qcurve"/>
      <point x="362" y="288" type="line"/>
      <point x="349" y="288" type="line"/>
      <point x="349" y="331" type="line"/>
      <point x="326" y="349"/>
      <point x="270" y="369"/>
      <point x="239" y="369" type="qcurve"/>
      <point x="201" y="369"/>
      <point x="136" y="341"/>
      <point x="87" y="291"/>
      <point x="59" y="225"/>
      <point x="59" y="188" type="qcurve"/>
      <point x="59" y="150"/>
      <point x="87" y="85"/>
      <point x="136" y="36"/>
      <point x="201" y="8"/>
      <point x="239" y="8" type="qcurve"/>
      <point x="271" y="8"/>
      <point x="329" y="29"/>
      <point x="352" y="47" type="qcurve"/>
      <point x="362" y="37" type="line"/>
      <point x="336" y="17"/>
      <point x="274" y="-6"/>
      <point x="239" y="-6" type="qcurve"/>
      <point x="198" y="-6"/>
      <point x="128" y="24"/>
      <point x="75" y="77"/>
      <point x="45" y="147"/>
      <point x="45" y="188" type="qcurve"/>
      <point x="45" y="228"/>
      <point x="75" y="300"/>
      <point x="128" y="352"/>
      <point x="198" y="383"/>
      <point x="239" y="383" type="qcurve"/>
      <point x="274" y="383"/>
      <point x="337" y="360"/>
    </contour>
    <contour>
      <point x="230" y="659" type="line"/>
      <point x="350" y="478" type="line"/>
      <point x="334" y="478" type="line"/>
      <point x="230" y="632" type="line"/>
      <point x="126" y="478" type="line"/>
      <point x="110" y="478" type="line"/>
    </contour>
  </outline>
</glyph>
<glyph name="Cdotaccent" format="2">
  <advance width="655"/>
  <unicode hex="010A"/>
  <outline>
    <contour>
      <point x="587" y="582" type="line"/>
      <point x="587" y="649" type="line"/>
      <point x="549" y="671"/>
      <point x="463" y="694"/>
      <point x="418" y="694" type="qcurve"/>
      <point x="347" y="694"/>
      <point x="222" y="640"/>
      <point x="129" y="545"/>
      <point x="75" y="418"/>
      <point x="75" y="345" type="qcurve"/>
      <point x="75" y="277"/>
      <point x="123" y="154"/>
      <point x="211" y="61"/>
      <point x="335" y="6"/>
      <point x="411" y="6" type="qcurve"/>
      <point x="463" y="6"/>
      <point x="552" y="31"/>
      <point x="591" y="54" type="qcurve"/>
      <point x="600" y="42" type="line"/>
      <point x="560" y="19"/>
      <point x="469" y="-8"/>
      <point x="415" y="-8" type="qcurve"/>
      <point x="335" y="-8"/>
      <point x="205" y="49"/>
      <point x="112" y="145"/>
      <point x="61" y="274"/>
      <point x="61" y="346" type="qcurve"/>
      <point x="61" y="422"/>
      <point x="117" y="554"/>
      <point x="214" y="652"/>
      <point x="344" y="708"/>
      <point x="418" y="708" type="qcurve"/>
      <point x="469" y="708"/>
      <point x="560" y="682"/>
      <point x="601" y="658" type="qcurve"/>
      <point x="601" y="582" type="line"/>
    </contour>
    <contour>
      <point x="395" y="757" type="qcurve"/>
      <point x="395" y="765"/>
      <point x="407" y="777"/>
      <point x="415" y="777" type="qcurve"/>
      <point x="423" y="777"/>
      <point x="435" y="765"/>
      <point x="435" y="757" type="qcurve"/>
      <point x="435" y="749"/>
      <point x="423" y="737"/>
      <point x="415" y="737" type="qcurve"/>
      <point x="407" y="737"/>
      <point x="395" y="749"/>
    </contour>
  </outline>
</glyph>
<glyph name="Edotaccent" format="2">
  <advance width="626"/>
  <unicode hex="0116"/>
  <outline>
    <contour>
      <point x="540" y="612" type="line"/>
      <point x="540" y="686" type="line"/>
      <point x="153" y="686" type="line"/>
      <point x="153" y="360" type="line"/>
      <point x="515" y="360" type="line"/>
      <point x="515" y="346" type="line"/>
      <point x="153" y="346" type="line"/>
      <point x="153" y="14" type="line"/>
      <point x="554" y="14" type="line"/>
      <point x="554" y="89" type="line"/>
      <point x="568" y="89" type="line"/>
      <point x="568" y="0" type="line"/>
      <point x="63" y="0" type="line"/>
      <point x="63" y="14" type="line"/>
      <point x="139" y="14" type="line"/>
      <point x="139" y="686" type="line"/>
      <point x="63" y="686" type="line"/>
      <point x="63" y="700" type="line"/>
      <point x="540" y="700" type="line"/>
      <point x="540" y="701" type="line"/>
      <point x="554" y="701" type="line"/>
      <point x="554" y="612" type="line"/>
    </contour>
    <contour>
      <point x="311" y="757" type="qcurve"/>
      <point x="311" y="765"/>
      <point x="323" y="777"/>
      <point x="331" y="777" type="qcurve"/>
      <point x="339" y="777"/>
      <point x="351" y="765"/>
      <point x="351" y="757" type="qcurve"/>
      <point x="351" y="749"/>
      <point x="339" y="737"/>
      <point x="331" y="737" type="qcurve"/>
      <point x="323" y="737"/>
      <point x="311" y="749"/>
    </contour>
  </outline>
</glyph>
<glyph name="Ecaron" format="2">
  <advance width="626"/>
  <unicode hex="011A"/>
  <outline>
    <contour>
      <point x="540" y="612" type="line"/>
      <point x="540" y="686" type="line"/>
      <point x="153" y="686" type="line"/>
      <point x="153" y="360" type="line"/>
      <point x="515" y="360" type="line"/>
      <point x="515" y="346" type="line"/>
      <point x="153" y="346" type="line"/>
      <point x="153" y="14" type="line"/>
      <point x="554" y="14" type="line"/>
      <point x="554" y="89" type="line"/>
      <point x="568" y="89" type="line"/>
      <point x="568" y="0" type="line"/>
      <point x="63" y="0" type="line"/>
      <point x="63" y="14" type="line"/>
      <point x="139" y="14" type="line"/>
      <point x="139" y="686" type="line"/>
      <point x="63" y="686" type="line"/>
      <point x="63" y="700" type="line"/>
      <point x="540" y="700" type="line"/>
      <point x="540" y="701" type="line"/>
      <point x="554" y="701" type="line"/>
      <point x="554" y="612" type="line"/>
    </contour>
    <contour>
      <point x="222" y="857" type="line"/>
      <point x="238" y="857" type="line"/>
      <point x="342" y="763" type="line"/>
      <point x="446" y="857" type="line"/>
      <point x="462" y="857" type="line"/>
      <point x="342" y="736" type="line"/>
    </contour>
  </outline>
</glyph>
<glyph name="Gbreve" format="2">
  <advance width="681"/>
  <unicode hex="011E"/>
  <outline>
    <contour>
      <point x="587" y="582" type="line"/>
      <point x="587" y="649" type="line"/>
      <point x="549" y="671"/>
      <point x="463" y="694"/>
      <point x="418" y="694" type="qcurve"/>
      <point x="347" y="694"/>
      <point x="222" y="639"/>
      <point x="129" y="545"/>
      <point x="75" y="419"/>
      <point x="75" y="348" type="qcurve"/>
      <point x="75" y="277"/>
      <point x="123" y="153"/>
      <point x="212" y="60"/>
      <point x="337" y="6"/>
      <point x="415" y="6" type="qcurve"/>
      <point x="462" y="6"/>
      <point x="548" y="29"/>
      <point x="586" y="51" type="qcurve"/>
      <point x="586" y="286" type="line"/>
      <point x="414" y="286" type="line"/>
      <point x="414" y="300" type="line"/>
      <point x="600" y="300" type="line"/>
      <point x="600" y="42" type="line"/>
      <point x="560" y="19"/>
      <point x="469" y="-8"/>
      <point x="418" y="-8" type="qcurve"/>
      <point x="337" y="-8"/>
      <point x="205" y="48"/>
      <point x="112" y="145"/>
      <point x="61" y="275"/>
      <point x="61" y="349" type="qcurve"/>
      <point x="61" y="423"/>
      <point x="117" y="554"/>
      <point x="214" y="651"/>
      <point x="344" y="708"/>
      <point x="418" y="708" type="qcurve"/>
      <point x="469" y="708"/>
      <point x="560" y="682"/>
      <point x="601" y="658" type="qcurve"/>
      <point x="601" y="582" type="line"/>
    </contour>
    <contour>
      <point x="412" y="733" type="qcurve"/>
      <point x="379" y="733"/>
      <point x="320" y="757"/>
      <point x="276" y="799"/>
      <point x="250" y="857"/>
      <point x="249" y="890" type="qcurve"/>
      <point x="264" y="890" type="line"/>
      <point x="265" y="861"/>
      <point x="288" y="810"/>
      <point x="327" y="770"/>
      <point x="380" y="747"/>
      <point x="412" y="747" type="qcurve"/>
      <point x="444" y="747"/>
      <point x="497" y="770"/>
      <point x="535" y="810"/>
      <point x="556" y="861"/>
      <point x="557" y="890" type="qcurve"/>
      <point x="573" y="890" type="line"/>
      <point x="573" y="857"/>
      <point x="547" y="799"/>
      <point x="503" y="757"/>
      <point x="445" y="733"/>
    </contour>
  </outline>
</glyph>
<glyph name="gbreve" format="2">
  <advance width="529"/>
  <unicode hex="011F"/>
  <outline>
    <contour>
      <point x="45" y="188" type="qcurve"/>
      <point x="45" y="228"/>
      <point x="75" y="300"/>
      <point x="128" y="352"/>
      <point x="198" y="383"/>
      <point x="239" y="383" type="qcurve"/>
      <point x="301" y="383"/>
      <point x="398" y="314"/>
      <point x="420" y="260" type="qcurve"/>
      <point x="420" y="289"/>
      <point x="422" y="346"/>
      <point x="424" y="375" type="qcurve"/>
      <point x="514" y="375" type="line"/>
      <point x="514" y="361" type="line"/>
      <point x="434" y="361" type="line"/>
      <point x="434" y="-8" type="line"/>
      <point x="434" y="-40"/>
      <point x="417" y="-102"/>
      <point x="373" y="-150"/>
      <point x="298" y="-180"/>
      <point x="240" y="-180" type="qcurve"/>
      <point x="222" y="-180"/>
      <point x="185" y="-175"/>
      <point x="143" y="-158"/>
      <point x="97" y="-128"/>
      <point x="72" y="-103" type="qcurve"/>
      <point x="81" y="-93" type="line"/>
      <point x="106" y="-117"/>
      <point x="150" y="-146"/>
      <point x="189" y="-161"/>
      <point x="224" y="-166"/>
      <point x="239" y="-166" type="qcurve"/>
      <point x="292" y="-166"/>
      <point x="361" y="-140"/>
      <point x="401" y="-94"/>
      <point x="418" y="-31"/>
      <point x="419" y="6" type="qcurve"/>
      <point x="419" y="11"/>
      <point x="419" y="16"/>
      <point x="419" y="25"/>
      <point x="420" y="40"/>
      <point x="420" y="54" type="qcurve"/>
      <point x="420" y="55"/>
      <point x="420" y="74"/>
      <point x="421" y="96"/>
      <point x="421" y="115"/>
      <point x="421" y="117" type="qcurve"/>
      <point x="410" y="90"/>
      <point x="374" y="45"/>
      <point x="327" y="12"/>
      <point x="270" y="-6"/>
      <point x="239" y="-6" type="qcurve"/>
      <point x="198" y="-6"/>
      <point x="128" y="24"/>
      <point x="75" y="77"/>
      <point x="45" y="147"/>
    </contour>
    <contour>
      <point x="59" y="188" type="qcurve"/>
      <point x="59" y="150"/>
      <point x="87" y="85"/>
      <point x="136" y="36"/>
      <point x="201" y="8"/>
      <point x="239" y="8" type="qcurve"/>
      <point x="276" y="8"/>
      <point x="342" y="36"/>
      <point x="392" y="85"/>
      <point x="420" y="150"/>
      <point x="420" y="188" type="qcurve"/>
      <point x="420" y="225"/>
      <point x="392" y="291"/>
      <point x="342" y="341"/>
      <point x="276" y="369"/>
      <point x="239" y="369" type="qcurve"/>
      <point x="201" y="369"/>
      <point x="136" y="341"/>
      <point x="87" y="291"/>
      <point x="59" y="225"/>
    </contour>
    <contour>
      <point x="260" y="500" type="qcurve"/>
      <point x="227" y="500"/>
      <point x="168" y="524"/>
      <point x="124" y="566"/>
      <point x="98" y="624"/>
      <point x="97" y="657" type="qcurve"/>
      <point x="112" y="657" type="line"/>
      <point x="113" y="628"/>
      <point x="136" y="577"/>
      <point x="175" y="537"/>
      <point x="228" y="514"/>
      <point x="260" y="514" type="qcurve"/>
      <point x="292" y="514"/>
      <point x="345" y="537"/>
      <point x="383" y="577"/>
      <point x="404" y="628"/>
      <point x="405" y="657" type="qcurve"/>
      <point x="421" y="657" type="line"/>
      <point x="421" y="624"/>
      <point x="395" y="566"/>
      <point x="351" y="524"/>
      <point x="293" y="500"/>
    </contour>
  </outline>
</glyph>
<glyph name="gdotaccent" format="2">
  <advance width="529"/>
  <unicode hex="0121"/>
  <outline>
    <contour>
      <point x="424" y="375" type="qcurve"/>
      <point x="514" y="375" type="line"/>
      <point x="514" y="361" type="line"/>
      <point x="434" y="361" type="line"/>
      <point x="434" y="-8" type="line"/>
      <point x="434" y="-40"/>
      <point x="417" y="-102"/>
      <point x="373" y="-150"/>
      <point x="298" y="-180"/>
      <point x="240" y="-180" type="qcurve"/>
      <point x="222" y="-180"/>
      <point x="185" y="-175"/>
      <point x="143" y="-158"/>
      <point x="97" y="-128"/>
      <point x="72" y="-103" type="qcurve"/>
      <point x="81" y="-93" type="line"/>
      <point x="106" y="-117"/>
      <point x="150" y="-146"/>
      <point x="189" y="-161"/>
      <point x="224" y="-166"/>
      <point x="239" y="-166" type="qcurve"/>
      <point x="292" y="-166"/>
      <point x="361" y="-140"/>
      <point x="401" y="-94"/>
      <point x="418" y="-31"/>
      <point x="419" y="6" type="qcurve"/>
      <point x="419" y="11"/>
      <point x="419" y="16"/>
      <point x="419" y="25"/>
      <point x="420" y="40"/>
      <point x="420" y="54" type="qcurve"/>
      <point x="420" y="55"/>
      <point x="420" y="74"/>
      <point x="421" y="96"/>
      <point x="421" y="115"/>
      <point x="421" y="117" type="qcurve"/>
      <point x="410" y="90"/>
      <point x="374" y="45"/>
      <point x="327" y="12"/>
      <point x="270" y="-6"/>
      <point x="239" y="-6" type="qcurve"/>
      <point x="198" y="-6"/>
      <point x="128" y="24"/>
      <point x="75" y="77"/>
      <point x="45" y="147"/>
      <point x="45" y="188" type="qcurve"/>
      <point x="45" y="228"/>
      <point x="75" y="300"/>
      <point x="128" y="352"/>
      <point x="198" y="383"/>
      <point x="239" y="383" type="qcurve"/>
      <point x="301" y="383"/>
      <point x="398" y="314"/>
      <point x="420" y="260" type="qcurve"/>
      <point x="420" y="289"/>
      <point x="422" y="346"/>
    </contour>
    <contour>
      <point x="59" y="188" type="qcurve"/>
      <point x="59" y="150"/>
      <point x="87" y="85"/>
      <point x="136" y="36"/>
      <point x="201" y="8"/>
      <point x="239" y="8" type="qcurve"/>
      <point x="276" y="8"/>
      <point x="342" y="36"/>
      <point x="392" y="85"/>
      <point x="420" y="150"/>
      <point x="420" y="188" type="qcurve"/>
      <point x="420" y="225"/>
      <point x="392" y="291"/>
      <point x="342" y="341"/>
      <point x="276" y="369"/>
      <point x="239" y="369" type="qcurve"/>
      <point x="201" y="369"/>
      <point x="136" y="341"/>
      <point x="87" y="291"/>
      <point x="59" y="225"/>
    </contour>
    <contour>
      <point x="241" y="500" type="qcurve"/>
      <point x="241" y="508"/>
      <point x="253" y="520"/>
      <point x="261" y="520" type="qcurve"/>
      <point x="269" y="520"/>
      <point x="281" y="508"/>
      <point x="281" y="500" type="qcurve"/>
      <point x="281" y="492"/>
      <point x="269" y="480"/>
      <point x="261" y="480" type="qcurve"/>
      <point x="253" y="480"/>
      <point x="241" y="492"/>
    </contour>
  </outline>
</glyph>
<glyph name="uni0122" format="2">
  <advance width="681"/>
  <unicode hex="0122"/>
  <outline>
    <contour>
      <point x="587" y="582" type="line"/>
      <point x="587" y="649" type="line"/>
      <point x="549" y="671"/>
      <point x="463" y="694"/>
      <point x="418" y="694" type="qcurve"/>
      <point x="347" y="694"/>
      <point x="222" y="639"/>
      <point x="129" y="545"/>
      <point x="75" y="419"/>
      <point x="75" y="348" type="qcurve"/>
      <point x="75" y="277"/>
      <point x="123" y="153"/>
      <point x="212" y="60"/>
      <point x="337" y="6"/>
      <point x="415" y="6" type="qcurve"/>
      <point x="462" y="6"/>
      <point x="548" y="29"/>
      <point x="586" y="51" type="qcurve"/>
      <point x="586" y="286" type="line"/>
      <point x="414" y="286" type="line"/>
      <point x="414" y="300" type="line"/>
      <point x="600" y="300" type="line"/>
      <point x="600" y="42" type="line"/>
      <point x="560" y="19"/>
      <point x="469" y="-8"/>
      <point x="418" y="-8" type="qcurve"/>
      <point x="337" y="-8"/>
      <point x="205" y="48"/>
      <point x="112" y="145"/>
      <point x="61" y="275"/>
      <point x="61" y="349" type="qcurve"/>
      <point x="61" y="423"/>
      <point x="117" y="554"/>
      <point x="214" y="651"/>
      <point x="344" y="708"/>
      <point x="418" y="708" type="qcurve"/>
      <point x="469" y="708"/>
      <point x="560" y="682"/>
      <point x="601" y="658" type="qcurve"/>
      <point x="601" y="582" type="line"/>
    </contour>
    <contour>
      <point x="409" y="-21" type="line"/>
      <point x="398" y="-47"/>
      <point x="384" y="-78"/>
      <point x="372" y="-106"/>
      <point x="359" y="-137"/>
      <point x="348" y="-163" type="qcurve"/>
      <point x="334" y="-163" type="line"/>
      <point x="344" y="-137"/>
      <point x="355" y="-106"/>
      <point x="365" y="-78"/>
      <point x="376" y="-47"/>
      <point x="386" y="-21" type="qcurve"/>
    </contour>
  </outline>
</glyph>
<glyph name="hcircumflex" format="2">
  <advance width="480"/>
  <unicode hex="0125"/>
  <outline>
    <contour>
      <point x="388" y="270" type="qcurve"/>
      <point x="388" y="14" type="line"/>
      <point x="468" y="14" type="line"/>
      <point x="468" y="0" type="line"/>
      <point x="295" y="0" type="line"/>
      <point x="295" y="14" type="line"/>
      <point x="374" y="14" type="line"/>
      <point x="374" y="277" type="line"/>
      <point x="372" y="313"/>
      <point x="323" y="366"/>
      <point x="279" y="368" type="qcurve"/>
      <point x="245" y="368"/>
      <point x="184" y="346"/>
      <point x="137" y="307"/>
      <point x="110" y="252"/>
      <point x="110" y="220" type="qcurve"/>
      <point x="110" y="14" type="line"/>
      <point x="191" y="14" type="line"/>
      <point x="191" y="0" type="line"/>
      <point x="16" y="0" type="line"/>
      <point x="16" y="14" type="line"/>
      <point x="96" y="14" type="line"/>
      <point x="96" y="736" type="line"/>
      <point x="17" y="736" type="line"/>
      <point x="17" y="750" type="line"/>
      <point x="107" y="750" type="line"/>
      <point x="107" y="277" type="line"/>
      <point x="127" y="324"/>
      <point x="215" y="382"/>
      <point x="272" y="382" type="qcurve"/>
      <point x="325" y="382"/>
      <point x="386" y="320"/>
    </contour>
    <contour>
      <point x="232" y="931" type="line"/>
      <point x="352" y="750" type="line"/>
      <point x="336" y="750" type="line"/>
      <point x="232" y="904" type="line"/>
      <point x="128" y="750" type="line"/>
      <point x="112" y="750" type="line"/>
    </contour>
  </outline>
</glyph>
<glyph name="itilde" format="2">
  <advance width="217"/>
  <unicode hex="0129"/>
  <outline>
    <contour>
      <point x="119" y="375" type="line"/>
      <point x="119" y="14" type="line"/>
      <point x="200" y="14" type="line"/>
      <point x="200" y="0" type="line"/>
      <point x="25" y="0" type="line"/>
      <point x="25" y="14" type="line"/>
      <point x="105" y="14" type="line"/>
      <point x="105" y="361" type="line"/>
      <point x="25" y="361" type="line"/>
      <point x="25" y="375" type="line"/>
    </contour>
    <contour>
      <point x="103" y="497" type="qcurve"/>
      <point x="87" y="515"/>
      <point x="63" y="527"/>
      <point x="49" y="527" type="qcurve"/>
      <point x="41" y="527"/>
      <point x="20" y="522"/>
      <point x="0" y="510"/>
      <point x="-15" y="489"/>
      <point x="-17" y="472" type="qcurve"/>
      <point x="-30" y="474" type="line"/>
      <point x="-29" y="492"/>
      <point x="-13" y="518"/>
      <point x="10" y="534"/>
      <point x="38" y="541"/>
      <point x="52" y="541" type="qcurve"/>
      <point x="72" y="541"/>
      <point x="105" y="520"/>
      <point x="121" y="503" type="qcurve"/>
      <point x="137" y="485"/>
      <point x="161" y="473"/>
      <point x="175" y="473" type="qcurve"/>
      <point x="183" y="473"/>
      <point x="204" y="478"/>
      <point x="224" y="490"/>
      <point x="239" y="511"/>
      <point x="241" y="528" type="qcurve"/>
      <point x="254" y="526" type="line"/>
      <point x="253" y="508"/>
      <point x="237" y="482"/>
      <point x="214" y="466"/>
      <point x="186" y="459"/>
      <point x="172" y="459" type="qcurve"/>
      <point x="152" y="459"/>
      <point x="119" y="480"/>
    </contour>
  </outline>
</glyph>
<glyph name="Imacron" format="2">
  <advance width="294"/>
  <unicode hex="012A"/>
  <outline>
    <contour>
      <point x="237" y="700" type="line"/>
      <point x="237" y="686" type="line"/>
      <point x="154" y="686" type="line"/>
      <point x="154" y="14" type="line"/>
      <point x="237" y="14" type="line"/>
      <point x="237" y="0" type="line"/>
      <point x="63" y="0" type="line"/>
      <point x="63" y="14" type="line"/>
      <point x="140" y="14" type="line"/>
      <point x="140" y="686" type="line"/>
      <point x="63" y="686" type="line"/>
      <point x="63" y="700" type="line"/>
    </contour>
    <contour>
      <point x="33" y="752" type="line"/>
      <point x="33" y="766" type="line"/>
      <point x="263" y="766" type="line"/>
      <point x="263" y="752" type="line"/>
    </contour>
  </outline>
</glyph>
<glyph name="Iogonek" format="2">
  <advance width="293"/>
  <unicode hex="012E"/>
  <outline>
    <contour>
      <point x="236" y="700" type="line"/>
      <point x="236" y="686" type="line"/>
      <point x="153" y="686" type="line"/>
      <point x="153" y="14" type="line"/>
      <point x="236" y="14" type="line"/>
      <point x="236" y="0" type="line"/>
      <point x="62" y="0" type="line"/>
      <point x="62" y="14" type="line"/>
      <point x="139" y="14" type="line"/>
      <point x="139" y="686" type="line"/>
      <point x="62" y="686" type="line"/>
      <point x="62" y="700" type="line"/>
    </contour>
    <contour>
      <point x="236" y="0" type="line"/>
      <point x="222" y="0" type="line"/>
      <point x="222" y="-6" type="line"/>
      <point x="222" y="-32"/>
      <point x="194" y="-53"/>
      <point x="181" y="-61" type="qcurve"/>
      <point x="158" y="-76"/>
      <point x="139" y="-113"/>
      <point x="139" y="-127" type="qcurve"/>
      <point x="139" y="-178"/>
      <point x="190" y="-223"/>
      <point x="223" y="-223" type="qcurve"/>
      <point x="249" y="-223"/>
      <point x="294" y="-194"/>
      <point x="304" y="-165" type="qcurve"/>
      <point x="289" y="-161" type="line"/>
      <point x="283" y="-182"/>
      <point x="248" y="-209"/>
      <point x="223" y="-209" type="qcurve"/>
      <point x="192" y="-209"/>
      <point x="153" y="-168"/>
      <point x="153" y="-137" type="qcurve"/>
      <point x="153" y="-109"/>
      <point x="179" y="-79"/>
      <point x="210" y="-58"/>
      <point x="236" y="-36"/>
      <point x="236" y="-16" type="qcurve"/>
    </contour>
  </outline>
</glyph>
<glyph name="Idotaccent" format="2">
  <advance width="294"/>
  <unicode hex="0130"/>
  <outline>
    <contour>
      <point x="237" y="700" type="line"/>
      <point x="237" y="686" type="line"/>
      <point x="154" y="686" type="line"/>
      <point x="154" y="14" type="line"/>
      <point x="237" y="14" type="line"/>
      <point x="237" y="0" type="line"/>
      <point x="63" y="0" type="line"/>
      <point x="63" y="14" type="line"/>
      <point x="140" y="14" type="line"/>
      <point x="140" y="686" type="line"/>
      <point x="63" y="686" type="line"/>
      <point x="63" y="700" type="line"/>
    </contour>
    <contour>
      <point x="128" y="759" type="qcurve"/>
      <point x="128" y="767"/>
      <point x="140" y="779"/>
      <point x="148" y="779" type="qcurve"/>
      <point x="156" y="779"/>
      <point x="168" y="767"/>
      <point x="168" y="759" type="qcurve"/>
      <point x="168" y="751"/>
      <point x="156" y="739"/>
      <point x="148" y="739" type="qcurve"/>
      <point x="140" y="739"/>
      <point x="128" y="751"/>
    </contour>
  </outline>
</glyph>
<glyph name="uni0136" format="2">
  <advance width="664"/>
  <unicode hex="0136"/>
  <outline>
    <contour>
      <point x="237" y="14" type="line"/>
      <point x="237" y="0" type="line"/>
      <point x="63" y="0" type="line"/>
      <point x="63" y="14" type="line"/>
      <point x="140" y="14" type="line"/>
      <point x="140" y="686" type="line"/>
      <point x="63" y="686" type="line"/>
      <point x="63" y="700" type="line"/>
      <point x="237" y="700" type="line"/>
      <point x="237" y="686" type="line"/>
      <point x="154" y="686" type="line"/>
      <point x="154" y="360" type="line"/>
      <point x="154" y="352"/>
      <point x="153" y="339"/>
      <point x="153" y="331" type="qcurve"/>
      <point x="170" y="351" type="line"/>
      <point x="521" y="686" type="line"/>
      <point x="456" y="686" type="line"/>
      <point x="456" y="700" type="line"/>
      <point x="619" y="700" type="line"/>
      <point x="619" y="686" type="line"/>
      <point x="543" y="686" type="line"/>
      <point x="268" y="424" type="line"/>
      <point x="349" y="321"/>
      <point x="510" y="117"/>
      <point x="591" y="14" type="qcurve"/>
      <point x="673" y="14" type="line"/>
      <point x="673" y="0" type="line"/>
      <point x="495" y="0" type="line"/>
      <point x="495" y="14" type="line"/>
      <point x="571" y="14" type="line"/>
      <point x="257" y="414" type="line"/>
      <point x="153" y="316" type="line"/>
      <point x="153" y="240"/>
      <point x="154" y="89"/>
      <point x="154" y="14" type="qcurve"/>
    </contour>
    <contour>
      <point x="385" y="-21" type="line"/>
      <point x="374" y="-47"/>
      <point x="360" y="-78"/>
      <point x="348" y="-106"/>
      <point x="335" y="-137"/>
      <point x="324" y="-163" type="qcurve"/>
      <point x="310" y="-163" type="line"/>
      <point x="320" y="-137"/>
      <point x="331" y="-106"/>
      <point x="341" y="-78"/>
      <point x="352" y="-47"/>
      <point x="362" y="-21" type="qcurve"/>
    </contour>
  </outline>
</glyph>
<glyph name="uni0137" format="2">
  <advance width="428"/>
  <unicode hex="0137"/>
  <outline>
    <contour>
      <point x="110" y="155" type="line"/>
      <point x="110" y="14" type="line"/>
      <point x="191" y="14" type="line"/>
      <point x="191" y="0" type="line"/>
      <point x="16" y="0" type="line"/>
      <point x="16" y="14" type="line"/>
      <point x="96" y="14" type="line"/>
      <point x="96" y="736" type="line"/>
      <point x="16" y="736" type="line"/>
      <point x="16" y="750" type="line"/>
      <point x="110" y="750" type="line"/>
      <point x="110" y="176" type="line"/>
      <point x="318" y="370" type="line"/>
      <point x="260" y="370" type="line"/>
      <point x="260" y="384" type="line"/>
      <point x="388" y="384" type="line"/>
      <point x="388" y="370" type="line"/>
      <point x="337" y="370" type="line"/>
      <point x="300" y="335"/>
      <point x="233" y="270"/>
      <point x="196" y="235" type="qcurve"/>
      <point x="236" y="179"/>
      <point x="317" y="69"/>
      <point x="358" y="14" type="qcurve"/>
      <point x="418" y="14" type="line"/>
      <point x="418" y="0" type="line"/>
      <point x="350" y="0" type="line"/>
      <point x="184" y="225" type="line"/>
    </contour>
    <contour>
      <point x="254" y="-21" type="line"/>
      <point x="243" y="-47"/>
      <point x="229" y="-78"/>
      <point x="217" y="-106"/>
      <point x="204" y="-137"/>
      <point x="193" y="-163" type="qcurve"/>
      <point x="179" y="-163" type="line"/>
      <point x="189" y="-137"/>
      <point x="200" y="-106"/>
      <point x="210" y="-78"/>
      <point x="221" y="-47"/>
      <point x="231" y="-21" type="qcurve"/>
    </contour>
  </outline>
</glyph>
<glyph name="Lacute" format="2">
  <advance width="592"/>
  <unicode hex="0139"/>
  <outline>
    <contour>
      <point x="237" y="700" type="line"/>
      <point x="237" y="686" type="line"/>
      <point x="153" y="686" type="line"/>
      <point x="153" y="14" type="line"/>
      <point x="554" y="14" type="line"/>
      <point x="554" y="89" type="line"/>
      <point x="568" y="89" type="line"/>
      <point x="568" y="0" type="line"/>
      <point x="63" y="0" type="line"/>
      <point x="63" y="14" type="line"/>
      <point x="139" y="14" type="line"/>
      <point x="139" y="686" type="line"/>
      <point x="63" y="686" type="line"/>
      <point x="63" y="700" type="line"/>
    </contour>
    <contour>
      <point x="269" y="750" type="line"/>
      <point x="359" y="883" type="line"/>
      <point x="375" y="883" type="line"/>
      <point x="285" y="750" type="line"/>
    </contour>
  </outline>
</glyph>
<glyph name="uni013B" format="2">
  <advance width="592"/>
  <unicode hex="013B"/>
  <outline>
    <contour>
      <point x="237" y="700" type="line"/>
      <point x="237" y="686" type="line"/>
      <point x="153" y="686" type="line"/>
      <point x="153" y="14" type="line"/>
      <point x="554" y="14" type="line"/>
      <point x="554" y="89" type="line"/>
      <point x="568" y="89" type="line"/>
      <point x="568" y="0" type="line"/>
      <point x="63" y="0" type="line"/>
      <point x="63" y="14" type="line"/>
      <point x="139" y="14" type="line"/>
      <point x="139" y="686" type="line"/>
      <point x="63" y="686" type="line"/>
      <point x="63" y="700" type="line"/>
    </contour>
    <contour>
      <point x="338" y="-21" type="line"/>
      <point x="327" y="-47"/>
      <point x="313" y="-78"/>
      <point x="301" y="-106"/>
      <point x="288" y="-137"/>
      <point x="277" y="-163" type="qcurve"/>
      <point x="263" y="-163" type="line"/>
      <point x="273" y="-137"/>
      <point x="284" y="-106"/>
      <point x="294" y="-78"/>
      <point x="305" y="-47"/>
      <point x="315" y="-21" type="qcurve"/>
    </contour>
  </outline>
</glyph>
<glyph name="uni013C" format="2">
  <advance width="210"/>
  <unicode hex="013C"/>
  <outline>
    <contour>
      <point x="112" y="750" type="line"/>
      <point x="112" y="14" type="line"/>
      <point x="193" y="14" type="line"/>
      <point x="193" y="0" type="line"/>
      <point x="18" y="0" type="line"/>
      <point x="18" y="14" type="line"/>
      <point x="98" y="14" type="line"/>
      <point x="98" y="736" type="line"/>
      <point x="18" y="736" type="line"/>
      <point x="18" y="750" type="line"/>
    </contour>
    <contour>
      <point x="102" y="-21" type="line"/>
      <point x="91" y="-47"/>
      <point x="77" y="-78"/>
      <point x="65" y="-106"/>
      <point x="52" y="-137"/>
      <point x="41" y="-163" type="qcurve"/>
      <point x="27" y="-163" type="line"/>
      <point x="37" y="-137"/>
      <point x="48" y="-106"/>
      <point x="58" y="-78"/>
      <point x="69" y="-47"/>
      <point x="79" y="-21" type="qcurve"/>
    </contour>
  </outline>
</glyph>
<glyph name="Ncaron" format="2">
  <advance width="837"/>
  <unicode hex="0147"/>
  <outline>
    <contour>
      <point x="235" y="14" type="line"/>
      <point x="235" y="0" type="line"/>
      <point x="61" y="0" type="line"/>
      <point x="61" y="14" type="line"/>
      <point x="138" y="14" type="line"/>
      <point x="138" y="686" type="line"/>
      <point x="61" y="686" type="line"/>
      <point x="61" y="700" type="line"/>
      <point x="163" y="700" type="line"/>
      <point x="235" y="609"/>
      <point x="363" y="442"/>
      <point x="486" y="279"/>
      <point x="610" y="116"/>
      <point x="679" y="28" type="qcurve"/>
      <point x="698" y="2" type="line"/>
      <point x="695" y="34" type="line"/>
      <point x="695" y="687" type="line"/>
      <point x="610" y="687" type="line"/>
      <point x="610" y="701" type="line"/>
      <point x="784" y="701" type="line"/>
      <point x="784" y="687" type="line"/>
      <point x="709" y="687" type="line"/>
      <point x="709" y="-32" type="line"/>
      <point x="566" y="147"/>
      <point x="299" y="496"/>
      <point x="168" y="670" type="qcurve"/>
      <point x="149" y="696" type="line"/>
      <point x="152" y="664" type="line"/>
      <point x="152" y="14" type="line"/>
    </contour>
    <contour>
      <point x="285" y="850" type="line"/>
      <point x="301" y="850" type="line"/>
      <point x="405" y="756" type="line"/>
      <point x="509" y="850" type="line"/>
      <point x="525" y="850" type="line"/>
      <point x="405" y="729" type="line"/>
    </contour>
  </outline>
</glyph>
<glyph name="rcaron" format="2">
  <advance width="294"/>
  <unicode hex="0159"/>
  <outline>
    <contour>
      <point x="119" y="220" type="qcurve"/>
      <point x="119" y="14" type="line"/>
      <point x="200" y="14" type="line"/>
      <point x="200" y="0" type="line"/>
      <point x="25" y="0" type="line"/>
      <point x="25" y="14" type="line"/>
      <point x="105" y="14" type="line"/>
      <point x="105" y="361" type="line"/>
      <point x="25" y="361" type="line"/>
      <point x="25" y="375" type="line"/>
      <point x="115" y="375" type="line"/>
      <point x="116" y="277" type="line"/>
      <point x="137" y="325"/>
      <point x="225" y="380"/>
      <point x="282" y="382" type="qcurve"/>
      <point x="282" y="368" type="line"/>
      <point x="249" y="367"/>
      <point x="190" y="344"/>
      <point x="145" y="305"/>
      <point x="119" y="251"/>
    </contour>
    <contour>
      <point x="33" y="600" type="line"/>
      <point x="49" y="600" type="line"/>
      <point x="153" y="506" type="line"/>
      <point x="257" y="600" type="line"/>
      <point x="273" y="600" type="line"/>
      <point x="153" y="479" type="line"/>
    </contour>
  </outline>
</glyph>
<glyph name="Scedilla" format="2">
  <advance width="544"/>
  <unicode hex="015E"/>
  <outline>
    <contour>
      <point x="59" y="63" type="qcurve"/>
      <point x="59" y="148" type="line"/>
      <point x="73" y="148" type="line"/>
      <point x="73" y="72" type="line"/>
      <point x="88" y="61"/>
      <point x="132" y="38"/>
      <point x="183" y="18"/>
      <point x="240" y="6"/>
      <point x="270" y="6" type="qcurve"/>
      <point x="307" y="6"/>
      <point x="379" y="28"/>
      <point x="435" y="73"/>
      <point x="470" y="141"/>
      <point x="470" y="187" type="qcurve"/>
      <point x="470" y="246"/>
      <point x="414" y="318"/>
      <point x="329" y="364"/>
      <point x="231" y="396"/>
      <point x="146" y="435"/>
      <point x="90" y="494"/>
      <point x="90" y="543" type="qcurve"/>
      <point x="90" y="577"/>
      <point x="119" y="636"/>
      <point x="169" y="680"/>
      <point x="237" y="704"/>
      <point x="276" y="704" type="qcurve"/>
      <point x="294" y="704"/>
      <point x="339" y="699"/>
      <point x="385" y="689"/>
      <point x="430" y="675"/>
      <point x="448" y="667" type="qcurve"/>
      <point x="448" y="582" type="line"/>
      <point x="434" y="582" type="line"/>
      <point x="434" y="659" type="line"/>
      <point x="406" y="670"/>
      <point x="323" y="691"/>
      <point x="282" y="691" type="qcurve"/>
      <point x="241" y="691"/>
      <point x="175" y="668"/>
      <point x="129" y="628"/>
      <point x="104" y="575"/>
      <point x="104" y="546" type="qcurve"/>
      <point x="104" y="499"/>
      <point x="160" y="445"/>
      <point x="245" y="407"/>
      <point x="343" y="374"/>
      <point x="428" y="326"/>
      <point x="484" y="250"/>
      <point x="484" y="188" type="qcurve"/>
      <point x="484" y="143"/>
      <point x="452" y="71"/>
      <point x="395" y="20"/>
      <point x="318" y="-7"/>
      <point x="272" y="-8" type="qcurve"/>
      <point x="273" y="-33"/>
      <point x="300" y="-53"/>
      <point x="313" y="-61" type="qcurve"/>
      <point x="336" y="-76"/>
      <point x="355" y="-113"/>
      <point x="355" y="-127" type="qcurve"/>
      <point x="355" y="-178"/>
      <point x="304" y="-223"/>
      <point x="271" y="-223" type="qcurve"/>
      <point x="245" y="-223"/>
      <point x="200" y="-194"/>
      <point x="190" y="-165" type="qcurve"/>
      <point x="205" y="-161" type="line"/>
      <point x="211" y="-182"/>
      <point x="246" y="-209"/>
      <point x="271" y="-209" type="qcurve"/>
      <point x="302" y="-209"/>
      <point x="341" y="-168"/>
      <point x="341" y="-137" type="qcurve"/>
      <point x="341" y="-109"/>
      <point x="315" y="-79"/>
      <point x="284" y="-58"/>
      <point x="258" y="-36"/>
      <point x="258" y="-16" type="qcurve"/>
      <point x="258" y="-8" type="line"/>
      <point x="219" y="-7"/>
      <point x="153" y="12"/>
      <point x="102" y="35"/>
      <point x="67" y="58"/>
    </contour>
  </outline>
</glyph>
<glyph name="uni0162" format="2">
  <advance width="518"/>
  <unicode hex="0162"/>
  <outline>
    <contour>
      <point x="52" y="582" type="line"/>
      <point x="52" y="700" type="line"/>
      <point x="466" y="700" type="line"/>
      <point x="466" y="582" type="line"/>
      <point x="452" y="582" type="line"/>
      <point x="452" y="686" type="line"/>
      <point x="266" y="686" type="line"/>
      <point x="266" y="0" type="line"/>
      <point x="252" y="0" type="line"/>
      <point x="252" y="686" type="line"/>
      <point x="66" y="686" type="line"/>
      <point x="66" y="582" type="line"/>
    </contour>
    <contour>
      <point x="268" y="-21" type="line"/>
      <point x="257" y="-47"/>
      <point x="243" y="-78"/>
      <point x="231" y="-106"/>
      <point x="218" y="-137"/>
      <point x="207" y="-163" type="qcurve"/>
      <point x="193" y="-163" type="line"/>
      <point x="203" y="-137"/>
      <point x="214" y="-106"/>
      <point x="224" y="-78"/>
      <point x="235" y="-47"/>
      <point x="245" y="-21" type="qcurve"/>
    </contour>
  </outline>
</glyph>
<glyph name="Tcaron" format="2">
  <advance width="518"/>
  <unicode hex="0164"/>
  <outline>
    <contour>
      <point x="52" y="582" type="line"/>
      <point x="52" y="700" type="line"/>
      <point x="466" y="700" type="line"/>
      <point x="466" y="582" type="line"/>
      <point x="452" y="582" type="line"/>
      <point x="452" y="686" type="line"/>
      <point x="266" y="686" type="line"/>
      <point x="266" y="0" type="line"/>
      <point x="252" y="0" type="line"/>
      <point x="252" y="686" type="line"/>
      <point x="66" y="686" type="line"/>
      <point x="66" y="582" type="line"/>
    </contour>
    <contour>
      <point x="140" y="850" type="line"/>
      <point x="156" y="850" type="line"/>
      <point x="260" y="756" type="line"/>
      <point x="364" y="850" type="line"/>
      <point x="380" y="850" type="line"/>
      <point x="260" y="729" type="line"/>
    </contour>
  </outline>
</glyph>
<glyph name="tcaron" format="2">
  <advance width="244"/>
  <unicode hex="0165"/>
  <outline>
    <contour>
      <point x="100" y="539" type="line"/>
      <point x="114" y="539" type="line"/>
      <point x="114" y="367" type="line"/>
      <point x="241" y="367" type="line"/>
      <point x="241" y="353" type="line"/>
      <point x="114" y="353" type="line"/>
      <point x="114" y="14" type="line"/>
      <point x="205" y="14" type="line"/>
      <point x="205" y="0" type="line"/>
      <point x="100" y="0" type="line"/>
      <point x="100" y="353" type="line"/>
      <point x="11" y="353" type="line"/>
      <point x="11" y="367" type="line"/>
      <point x="100" y="367" type="line"/>
    </contour>
    <contour>
      <point x="199" y="572" type="qcurve"/>
      <point x="193" y="590" type="line"/>
      <point x="214" y="610"/>
      <point x="233" y="669"/>
      <point x="226" y="704" type="qcurve"/>
      <point x="245" y="711" type="line"/>
      <point x="253" y="671"/>
      <point x="228" y="598"/>
    </contour>
  </outline>
</glyph>
<glyph name="Utilde" format="2">
  <advance width="698"/>
  <unicode hex="0168"/>
  <outline>
    <contour>
      <point x="221" y="700" type="line"/>
      <point x="221" y="686" type="line"/>
      <point x="138" y="686" type="line"/>
      <point x="138" y="229" type="line"/>
      <point x="138" y="175"/>
      <point x="169" y="92"/>
      <point x="225" y="35"/>
      <point x="303" y="6"/>
      <point x="349" y="6" type="qcurve"/>
      <point x="394" y="6"/>
      <point x="472" y="35"/>
      <point x="528" y="92"/>
      <point x="560" y="175"/>
      <point x="560" y="229" type="qcurve"/>
      <point x="560" y="700" type="line"/>
      <point x="653" y="700" type="line"/>
      <point x="653" y="686" type="line"/>
      <point x="574" y="686" type="line"/>
      <point x="574" y="226" type="line"/>
      <point x="574" y="169"/>
      <point x="539" y="81"/>
      <point x="479" y="22"/>
      <point x="397" y="-8"/>
      <point x="349" y="-8" type="qcurve"/>
      <point x="301" y="-8"/>
      <point x="218" y="22"/>
      <point x="158" y="81"/>
      <point x="124" y="169"/>
      <point x="124" y="226" type="qcurve"/>
      <point x="124" y="686" type="line"/>
      <point x="47" y="686" type="line"/>
      <point x="47" y="700" type="line"/>
    </contour>
    <contour>
      <point x="345" y="785" type="qcurve"/>
      <point x="329" y="803"/>
      <point x="305" y="815"/>
      <point x="291" y="815" type="qcurve"/>
      <point x="283" y="815"/>
      <point x="262" y="810"/>
      <point x="242" y="798"/>
      <point x="227" y="777"/>
      <point x="225" y="760" type="qcurve"/>
      <point x="212" y="762" type="line"/>
      <point x="213" y="780"/>
      <point x="229" y="806"/>
      <point x="252" y="822"/>
      <point x="280" y="829"/>
      <point x="294" y="829" type="qcurve"/>
      <point x="314" y="829"/>
      <point x="347" y="808"/>
      <point x="363" y="791" type="qcurve"/>
      <point x="379" y="773"/>
      <point x="403" y="761"/>
      <point x="417" y="761" type="qcurve"/>
      <point x="425" y="761"/>
      <point x="446" y="766"/>
      <point x="466" y="778"/>
      <point x="481" y="799"/>
      <point x="483" y="816" type="qcurve"/>
      <point x="496" y="814" type="line"/>
      <point x="495" y="796"/>
      <point x="479" y="770"/>
      <point x="456" y="754"/>
      <point x="428" y="747"/>
      <point x="414" y="747" type="qcurve"/>
      <point x="394" y="747"/>
      <point x="361" y="768"/>
    </contour>
  </outline>
</glyph>
<glyph name="ubreve" format="2">
  <advance width="480"/>
  <unicode hex="016D"/>
  <outline>
    <contour>
      <point x="92" y="105" type="qcurve"/>
      <point x="92" y="361" type="line"/>
      <point x="12" y="361" type="line"/>
      <point x="12" y="375" type="line"/>
      <point x="106" y="375" type="line"/>
      <point x="106" y="98" type="line"/>
      <point x="108" y="62"/>
      <point x="157" y="9"/>
      <point x="201" y="7" type="qcurve"/>
      <point x="235" y="7"/>
      <point x="296" y="29"/>
      <point x="342" y="68"/>
      <point x="370" y="123"/>
      <point x="370" y="155" type="qcurve"/>
      <point x="370" y="361" type="line"/>
      <point x="289" y="361" type="line"/>
      <point x="289" y="375" type="line"/>
      <point x="384" y="375" type="line"/>
      <point x="384" y="14" type="line"/>
      <point x="464" y="14" type="line"/>
      <point x="464" y="0" type="line"/>
      <point x="374" y="0" type="line"/>
      <point x="373" y="98" type="line"/>
      <point x="353" y="50"/>
      <point x="264" y="-7"/>
      <point x="208" y="-7" type="qcurve"/>
      <point x="155" y="-7"/>
      <point x="94" y="55"/>
    </contour>
    <contour>
      <point x="239" y="500" type="qcurve"/>
      <point x="206" y="500"/>
      <point x="147" y="524"/>
      <point x="103" y="566"/>
      <point x="77" y="624"/>
      <point x="76" y="657" type="qcurve"/>
      <point x="91" y="657" type="line"/>
      <point x="92" y="628"/>
      <point x="115" y="577"/>
      <point x="154" y="537"/>
      <point x="207" y="514"/>
      <point x="239" y="514" type="qcurve"/>
      <point x="271" y="514"/>
      <point x="324" y="537"/>
      <point x="362" y="577"/>
      <point x="383" y="628"/>
      <point x="384" y="657" type="qcurve"/>
      <point x="400" y="657" type="line"/>
      <point x="400" y="624"/>
      <point x="374" y="566"/>
      <point x="330" y="524"/>
      <point x="272" y="500"/>
    </contour>
  </outline>
</glyph>
<glyph name="Uogonek" format="2">
  <advance width="698"/>
  <unicode hex="0172"/>
  <outline>
    <contour>
      <point x="221" y="700" type="line"/>
      <point x="221" y="686" type="line"/>
      <point x="138" y="686" type="line"/>
      <point x="138" y="229" type="line"/>
      <point x="138" y="175"/>
      <point x="169" y="92"/>
      <point x="225" y="35"/>
      <point x="303" y="6"/>
      <point x="349" y="6" type="qcurve"/>
      <point x="394" y="6"/>
      <point x="472" y="35"/>
      <point x="528" y="92"/>
      <point x="560" y="175"/>
      <point x="560" y="229" type="qcurve"/>
      <point x="560" y="700" type="line"/>
      <point x="653" y="700" type="line"/>
      <point x="653" y="686" type="line"/>
      <point x="574" y="686" type="line"/>
      <point x="574" y="226" type="line"/>
      <point x="574" y="169"/>
      <point x="540" y="83"/>
      <point x="482" y="24"/>
      <point x="401" y="-7"/>
      <point x="355" y="-8" type="qcurve"/>
      <point x="355" y="-16" type="line"/>
      <point x="355" y="-36"/>
      <point x="329" y="-58"/>
      <point x="298" y="-79"/>
      <point x="272" y="-109"/>
      <point x="272" y="-137" type="qcurve"/>
      <point x="272" y="-168"/>
      <point x="311" y="-209"/>
      <point x="342" y="-209" type="qcurve"/>
      <point x="367" y="-209"/>
      <point x="402" y="-182"/>
      <point x="408" y="-161" type="qcurve"/>
      <point x="423" y="-165" type="line"/>
      <point x="413" y="-194"/>
      <point x="368" y="-223"/>
      <point x="342" y="-223" type="qcurve"/>
      <point x="309" y="-223"/>
      <point x="258" y="-178"/>
      <point x="258" y="-127" type="qcurve"/>
      <point x="258" y="-113"/>
      <point x="277" y="-76"/>
      <point x="300" y="-61" type="qcurve"/>
      <point x="312" y="-53"/>
      <point x="340" y="-33"/>
      <point x="341" y="-8" type="qcurve"/>
      <point x="294" y="-7"/>
      <point x="215" y="25"/>
      <point x="157" y="84"/>
      <point x="124" y="170"/>
      <point x="124" y="226" type="qcurve"/>
      <point x="124" y="686" type="line"/>
      <point x="47" y="686" type="line"/>
      <point x="47" y="700" type="line"/>
    </contour>
  </outline>
</glyph>
<glyph name="uogonek" format="2">
  <advance width="481"/>
  <unicode hex="0173"/>
  <outline>
    <contour>
      <point x="371" y="155" type="qcurve"/>
      <point x="371" y="361" type="line"/>
      <point x="290" y="361" type="line"/>
      <point x="290" y="375" type="line"/>
      <point x="385" y="375" type="line"/>
      <point x="385" y="14" type="line"/>
      <point x="465" y="14" type="line"/>
      <point x="465" y="0" type="line"/>
      <point x="375" y="0" type="line"/>
      <point x="374" y="98" type="line"/>
      <point x="354" y="50"/>
      <point x="265" y="-7"/>
      <point x="209" y="-7" type="qcurve"/>
      <point x="156" y="-7"/>
      <point x="95" y="55"/>
      <point x="93" y="105" type="qcurve"/>
      <point x="93" y="361" type="line"/>
      <point x="13" y="361" type="line"/>
      <point x="13" y="375" type="line"/>
      <point x="107" y="375" type="line"/>
      <point x="107" y="98" type="line"/>
      <point x="109" y="62"/>
      <point x="158" y="9"/>
      <point x="202" y="7" type="qcurve"/>
      <point x="236" y="7"/>
      <point x="297" y="29"/>
      <point x="343" y="68"/>
      <point x="371" y="123"/>
    </contour>
    <contour>
      <point x="390" y="0" type="line"/>
      <point x="376" y="0" type="line"/>
      <point x="376" y="-6" type="line"/>
      <point x="376" y="-32"/>
      <point x="348" y="-53"/>
      <point x="335" y="-61" type="qcurve"/>
      <point x="312" y="-76"/>
      <point x="293" y="-113"/>
      <point x="293" y="-127" type="qcurve"/>
      <point x="293" y="-178"/>
      <point x="344" y="-223"/>
      <point x="377" y="-223" type="qcurve"/>
      <point x="403" y="-223"/>
      <point x="448" y="-194"/>
      <point x="458" y="-165" type="qcurve"/>
      <point x="443" y="-161" type="line"/>
      <point x="437" y="-182"/>
      <point x="402" y="-209"/>
      <point x="377" y="-209" type="qcurve"/>
      <point x="346" y="-209"/>
      <point x="307" y="-168"/>
      <point x="307" y="-137" type="qcurve"/>
      <point x="307" y="-109"/>
      <point x="333" y="-79"/>
      <point x="364" y="-58"/>
      <point x="390" y="-36"/>
      <point x="390" y="-16" type="qcurve"/>
    </contour>
  </outline>
</glyph>
<glyph name="zacute" format="2">
  <advance width="369"/>
  <unicode hex="017A"/>
  <outline>
    <contour>
      <point x="329" y="87" type="line"/>
      <point x="329" y="0" type="line"/>
      <point x="30" y="0" type="line"/>
      <point x="290" y="361" type="line"/>
      <point x="93" y="361" type="line"/>
      <point x="62" y="361"/>
      <point x="33" y="377"/>
      <point x="33" y="406" type="qcurve"/>
      <point x="33" y="410" type="line"/>
      <point x="46" y="410" type="line"/>
      <point x="46" y="398" type="line"/>
      <point x="46" y="389"/>
      <point x="62" y="375"/>
      <point x="79" y="375" type="qcurve"/>
      <point x="314" y="375" type="line"/>
      <point x="54" y="14" type="line"/>
      <point x="316" y="14" type="line"/>
      <point x="316" y="87" type="line"/>
    </contour>
    <contour>
      <point x="162" y="479" type="line"/>
      <point x="252" y="612" type="line"/>
      <point x="268" y="612" type="line"/>
      <point x="178" y="479" type="line"/>
    </contour>
  </outline>
</glyph>
<glyph name="zdotaccent" format="2">
  <advance width="369"/>
  <unicode hex="017C"/>
  <outline>
    <contour>
      <point x="329" y="87" type="line"/>
      <point x="329" y="0" type="line"/>
      <point x="30" y="0" type="line"/>
      <point x="290" y="361" type="line"/>
      <point x="93" y="361" type="line"/>
      <point x="62" y="361"/>
      <point x="33" y="377"/>
      <point x="33" y="406" type="qcurve"/>
      <point x="33" y="410" type="line"/>
      <point x="46" y="410" type="line"/>
      <point x="46" y="398" type="line"/>
      <point x="46" y="389"/>
      <point x="62" y="375"/>
      <point x="79" y="375" type="qcurve"/>
      <point x="314" y="375" type="line"/>
      <point x="54" y="14" type="line"/>
      <point x="316" y="14" type="line"/>
      <point x="316" y="87" type="line"/>
    </contour>
    <contour>
      <point x="160" y="500" type="qcurve"/>
      <point x="160" y="508"/>
      <point x="172" y="520"/>
      <point x="180" y="520" type="qcurve"/>
      <point x="188" y="520"/>
      <point x="200" y="508"/>
      <point x="200" y="500" type="qcurve"/>
      <point x="200" y="492"/>
      <point x="188" y="480"/>
      <point x="180" y="480" type="qcurve"/>
      <point x="172" y="480"/>
      <point x="160" y="492"/>
    </contour>
  </outline>
</glyph>
<glyph name="florin" format="2">
  <advance width="284"/>
  <unicode hex="0192"/>
  <outline>
    <contour>
      <point x="121" y="358" type="line"/>
      <point x="121" y="59" type="line"/>
      <point x="121" y="3"/>
      <point x="92" y="-82"/>
      <point x="41" y="-140"/>
      <point x="-26" y="-172"/>
      <point x="-64" y="-173" type="qcurve"/>
      <point x="-64" y="-159" type="line"/>
      <point x="-30" y="-159"/>
      <point x="32" y="-129"/>
      <point x="79" y="-73"/>
      <point x="107" y="6"/>
      <point x="107" y="55" type="qcurve"/>
      <point x="107" y="358" type="line"/>
      <point x="42" y="358" type="line"/>
      <point x="42" y="372" type="line"/>
      <point x="107" y="372" type="line"/>
      <point x="107" y="518" type="line"/>
      <point x="107" y="573"/>
      <point x="136" y="659"/>
      <point x="187" y="717"/>
      <point x="254" y="748"/>
      <point x="292" y="750" type="qcurve"/>
      <point x="292" y="736" type="line"/>
      <point x="258" y="736"/>
      <point x="196" y="706"/>
      <point x="149" y="650"/>
      <point x="121" y="571"/>
      <point x="121" y="522" type="qcurve"/>
      <point x="121" y="372" type="line"/>
      <point x="251" y="372" type="line"/>
      <point x="251" y="358" type="line"/>
    </contour>
  </outline>
</glyph>
<glyph name="caron" format="2">
  <advance width="450"/>
  <unicode hex="02C7"/>
  <outline>
    <contour>
      <point x="112" y="600" type="line"/>
      <point x="128" y="600" type="line"/>
      <point x="232" y="506" type="line"/>
      <point x="336" y="600" type="line"/>
      <point x="352" y="600" type="line"/>
      <point x="232" y="479" type="line"/>
    </contour>
  </outline>
</glyph>
<glyph name="dotaccent" format="2">
  <advance width="185"/>
  <unicode hex="02D9"/>
  <outline>
    <contour>
      <point x="67" y="500" type="qcurve"/>
      <point x="67" y="508"/>
      <point x="79" y="520"/>
      <point x="87" y="520" type="qcurve"/>
      <point x="95" y="520"/>
      <point x="107" y="508"/>
      <point x="107" y="500" type="qcurve"/>
      <point x="107" y="492"/>
      <point x="95" y="480"/>
      <point x="87" y="480" type="qcurve"/>
      <point x="79" y="480"/>
      <point x="67" y="492"/>
    </contour>
  </outline>
</glyph>
<glyph name="hungarumlaut" format="2">
  <advance width="436"/>
  <unicode hex="02DD"/>
  <outline>
    <contour>
      <point x="100" y="479" type="line"/>
      <point x="190" y="612" type="line"/>
      <point x="206" y="612" type="line"/>
      <point x="116" y="479" type="line"/>
    </contour>
    <contour>
      <point x="318" y="479" type="line"/>
      <point x="408" y="612" type="line"/>
      <point x="424" y="612" type="line"/>
      <point x="334" y="479" type="line"/>
    </contour>
  </outline>
</glyph>
<glyph name="pi" format="2">
  <advance width="350"/>
  <unicode hex="03C0"/>
  <outline>
    <contour>
      <point x="102" y="306" type="line"/>
      <point x="102" y="0" type="line"/>
      <point x="88" y="0" type="line"/>
      <point x="88" y="306" type="line"/>
      <point x="37" y="306" type="line"/>
      <point x="37" y="320" type="line"/>
      <point x="303" y="320" type="line"/>
      <point x="303" y="306" type="line"/>
      <point x="265" y="306" type="line"/>
      <point x="265" y="0" type="line"/>
      <point x="251" y="0" type="line"/>
      <point x="251" y="306" type="line"/>
    </contour>
  </outline>
</glyph>
<glyph name="emdash" format="2">
  <advance width="636"/>
  <unicode hex="2014"/>
  <outline>
    <contour>
      <point x="67" y="179" type="line"/>
      <point x="67" y="193" type="line"/>
      <point x="569" y="193" type="line"/>
      <point x="569" y="179" type="line"/>
    </contour>
  </outline>
</glyph>
<glyph name="quotesinglbase" format="2">
  <advance width="214"/>
  <unicode hex="201A"/>
  <outline>
    <contour>
      <point x="74" y="-47" type="qcurve"/>
      <point x="68" y="-29" type="line"/>
      <point x="89" y="-9"/>
      <point x="108" y="50"/>
      <point x="101" y="85" type="qcurve"/>
      <point x="120" y="92" type="line"/>
      <point x="128" y="52"/>
      <point x="103" y="-21"/>
    </contour>
  </outline>
</glyph>
<glyph name="quotedblright" format="2">
  <advance width="290"/>
  <unicode hex="201D"/>
  <outline>
    <contour>
      <point x="73" y="572" type="qcurve"/>
      <point x="67" y="590" type="line"/>
      <point x="88" y="610"/>
      <point x="107" y="669"/>
      <point x="100" y="704" type="qcurve"/>
      <point x="119" y="711" type="line"/>
      <point x="127" y="671"/>
      <point x="102" y="598"/>
    </contour>
    <contour>
      <point x="177" y="572" type="qcurve"/>
      <point x="171" y="590" type="line"/>
      <point x="192" y="610"/>
      <point x="211" y="669"/>
      <point x="204" y="704" type="qcurve"/>
      <point x="223" y="711" type="line"/>
      <point x="231" y="671"/>
      <point x="206" y="598"/>
    </contour>
  </outline>
</glyph>
<glyph name="dagger" format="2">
  <advance width="326"/>
  <unicode hex="2020"/>
  <outline>
    <contour>
      <point x="156" y="73" type="line"/>
      <point x="156" y="424" type="line"/>
      <point x="71" y="424" type="line"/>
      <point x="71" y="438" type="line"/>
      <point x="156" y="438" type="line"/>
      <point x="156" y="571" type="line"/>
      <point x="170" y="571" type="line"/>
      <point x="170" y="438" type="line"/>
      <point x="255" y="438" type="line"/>
      <point x="255" y="424" type="line"/>
      <point x="170" y="424" type="line"/>
      <point x="170" y="73" type="line"/>
    </contour>
  </outline>
</glyph>
<glyph name="bullet" format="2">
  <advance width="335"/>
  <unicode hex="2022"/>
  <outline>
    <contour>
      <point x="102" y="300" type="qcurve"/>
      <point x="102" y="328"/>
      <point x="140" y="366"/>
      <point x="167" y="366" type="qcurve"/>
      <point x="195" y="366"/>
      <point x="233" y="328"/>
      <point x="233" y="300" type="qcurve"/>
      <point x="233" y="273"/>
      <point x="195" y="235"/>
      <point x="167" y="235" type="qcurve"/>
      <point x="140" y="235"/>
      <point x="102" y="273"/>
    </contour>
  </outline>
</glyph>
<glyph name="guilsinglright" format="2">
  <advance width="286"/>
  <unicode hex="203A"/>
  <outline>
    <contour>
      <point x="65" y="93" type="line"/>
      <point x="207" y="239" type="line"/>
      <point x="65" y="383" type="line"/>
      <point x="65" y="400" type="line"/>
      <point x="236" y="239" type="line"/>
      <point x="65" y="77" type="line"/>
    </contour>
  </outline>
</glyph>
<glyph name="Euro" format="2">
  <advance width="556"/>
  <unicode hex="20AC"/>
  <outline>
    <contour>
      <point x="48" y="393" type="line"/>
      <point x="116" y="393" type="line"/>
      <point x="124" y="438"/>
      <point x="161" y="533"/>
      <point x="226" y="609"/>
      <point x="319" y="658"/>
      <point x="382" y="658" type="qcurve"/>
      <point x="422" y="658"/>
      <point x="476" y="638"/>
      <point x="481" y="634" type="qcurve"/>
      <point x="475" y="624" type="line"/>
      <point x="430" y="644"/>
      <point x="381" y="644" type="qcurve"/>
      <point x="333" y="644"/>
      <point x="249" y="610"/>
      <point x="183" y="545"/>
      <point x="139" y="451"/>
      <point x="130" y="393" type="qcurve"/>
      <point x="375" y="393" type="line"/>
      <point x="375" y="379" type="line"/>
      <point x="128" y="379" type="line"/>
      <point x="125" y="353"/>
      <point x="125" y="328" type="qcurve"/>
      <point x="125" y="317"/>
      <point x="126" y="297"/>
      <point x="127" y="287" type="qcurve"/>
      <point x="375" y="287" type="line"/>
      <point x="375" y="273" type="line"/>
      <point x="128" y="273" type="line"/>
      <point x="135" y="212"/>
      <point x="182" y="114"/>
      <point x="250" y="45"/>
      <point x="333" y="7"/>
      <point x="377" y="7" type="qcurve"/>
      <point x="432" y="7"/>
      <point x="483" y="35" type="qcurve"/>
      <point x="495" y="27" type="line"/>
      <point x="439" y="-7"/>
      <point x="375" y="-7" type="qcurve"/>
      <point x="325" y="-7"/>
      <point x="237" y="36"/>
      <point x="167" y="111"/>
      <point x="120" y="213"/>
      <point x="113" y="273" type="qcurve"/>
      <point x="49" y="273" type="line"/>
      <point x="49" y="287" type="line"/>
      <point x="111" y="287" type="line"/>
      <point x="110" y="297"/>
      <point x="110" y="316"/>
      <point x="110" y="327" type="qcurve"/>
      <point x="110" y="350"/>
      <point x="113" y="379" type="qcurve"/>
      <point x="48" y="379" type="line"/>
    </contour>
  </outline>
</glyph>
<glyph name="trademark" format="2">
  <advance width="579"/>
  <unicode hex="2122"/>
  <outline>
    <contour>
      <point x="244" y="768" type="line"/>
      <point x="261" y="742"/>
      <point x="291" y="698"/>
      <point x="320" y="656"/>
      <point x="348" y="615"/>
      <point x="364" y="593" type="qcurve"/>
      <point x="372" y="605"/>
      <point x="398" y="644"/>
      <point x="430" y="690"/>
      <point x="466" y="742"/>
      <point x="484" y="768" type="qcurve"/>
      <point x="484" y="498" type="line"/>
      <point x="479" y="498" type="line"/>
      <point x="479" y="752" type="line"/>
      <point x="448" y="707"/>
      <point x="391" y="621"/>
      <point x="364" y="582" type="qcurve"/>
      <point x="352" y="598"/>
      <point x="318" y="648"/>
      <point x="284" y="698"/>
      <point x="256" y="741"/>
      <point x="250" y="752" type="qcurve"/>
      <point x="250" y="498" type="line"/>
      <point x="244" y="498" type="line"/>
    </contour>
    <contour>
      <point x="194" y="757" type="line"/>
      <point x="194" y="751" type="line"/>
      <point x="120" y="751" type="line"/>
      <point x="120" y="498" type="line"/>
      <point x="116" y="498" type="line"/>
      <point x="116" y="751" type="line"/>
      <point x="42" y="751" type="line"/>
      <point x="42" y="757" type="line"/>
    </contour>
  </outline>
</glyph>
<glyph name="Omega" format="2">
  <advance width="689"/>
  <unicode hex="2126"/>
  <outline>
    <contour>
      <point x="77" y="14" type="line"/>
      <point x="259" y="14" type="line"/>
      <point x="219" y="32"/>
      <point x="152" y="82"/>
      <point x="103" y="149"/>
      <point x="76" y="234"/>
      <point x="76" y="287" type="qcurve"/>
      <point x="76" y="335"/>
      <point x="104" y="441"/>
      <point x="169" y="530"/>
      <point x="273" y="588"/>
      <point x="348" y="588" type="qcurve"/>
      <point x="422" y="588"/>
      <point x="524" y="529"/>
      <point x="586" y="439"/>
      <point x="613" y="332"/>
      <point x="613" y="284" type="qcurve"/>
      <point x="613" y="178"/>
      <point x="518" y="49"/>
      <point x="438" y="14" type="qcurve"/>
      <point x="606" y="14" type="line"/>
      <point x="606" y="0" type="line"/>
      <point x="402" y="0" type="line"/>
      <point x="402" y="14" type="line"/>
      <point x="439" y="28"/>
      <point x="510" y="72"/>
      <point x="565" y="137"/>
      <point x="599" y="225"/>
      <point x="599" y="283" type="qcurve"/>
      <point x="599" y="356"/>
      <point x="561" y="466"/>
      <point x="493" y="538"/>
      <point x="401" y="574"/>
      <point x="347" y="574" type="qcurve"/>
      <point x="293" y="574"/>
      <point x="200" y="540"/>
      <point x="131" y="469"/>
      <point x="91" y="361"/>
      <point x="91" y="288" type="qcurve"/>
      <point x="91" y="229"/>
      <point x="126" y="140"/>
      <point x="183" y="74"/>
      <point x="255" y="29"/>
      <point x="292" y="14" type="qcurve"/>
      <point x="292" y="0" type="line"/>
      <point x="77" y="0" type="line"/>
    </contour>
  </outline>
</glyph>
<glyph name="Delta" format="2">
  <advance width="422"/>
  <unicode hex="2206"/>
  <outline>
    <contour>
      <point x="211" y="730" type="line"/>
      <point x="363" y="286" type="line"/>
      <point x="59" y="286" type="line"/>
    </contour>
    <contour>
      <point x="80" y="300" type="line"/>
      <point x="342" y="300" type="line"/>
      <point x="211" y="683" type="line"/>
    </contour>
  </outline>
</glyph>
<glyph name="radical" format="2">
  <advance width="552"/>
  <unicode hex="221A"/>
  <outline>
    <contour>
      <point x="46" y="375" type="line"/>
      <point x="145" y="375" type="line"/>
      <point x="271" y="109" type="line"/>
      <point x="503" y="599" type="line"/>
      <point x="519" y="599" type="line"/>
      <point x="271" y="62" type="line"/>
      <point x="135" y="361" type="line"/>
      <point x="46" y="361" type="line"/>
    </contour>
  </outline>
</glyph>
<glyph name="infinity" format="2">
  <advance width="476"/>
  <unicode hex="221E"/>
  <outline>
    <contour>
      <point x="321" y="237" type="qcurve"/>
      <point x="295" y="237"/>
      <point x="251" y="257"/>
      <point x="240" y="275" type="qcurve"/>
      <point x="229" y="257"/>
      <point x="185" y="237"/>
      <point x="159" y="237" type="qcurve"/>
      <point x="121" y="237"/>
      <point x="81" y="277"/>
      <point x="81" y="300" type="qcurve"/>
      <point x="81" y="323"/>
      <point x="121" y="363"/>
      <point x="159" y="363" type="qcurve"/>
      <point x="185" y="363"/>
      <point x="229" y="342"/>
      <point x="240" y="325" type="qcurve"/>
      <point x="251" y="342"/>
      <point x="295" y="363"/>
      <point x="321" y="363" type="qcurve"/>
      <point x="359" y="363"/>
      <point x="395" y="323"/>
      <point x="395" y="300" type="qcurve"/>
      <point x="395" y="277"/>
      <point x="359" y="237"/>
    </contour>
    <contour>
      <point x="233" y="300" type="line"/>
      <point x="233" y="310"/>
      <point x="220" y="328"/>
      <point x="199" y="342"/>
      <point x="172" y="349"/>
      <point x="159" y="349" type="qcurve"/>
      <point x="128" y="349"/>
      <point x="99" y="315"/>
      <point x="99" y="300" type="qcurve"/>
      <point x="99" y="285"/>
      <point x="128" y="251"/>
      <point x="159" y="251" type="qcurve"/>
      <point x="185" y="251"/>
      <point x="231" y="278"/>
      <point x="233" y="298" type="qcurve"/>
    </contour>
    <contour>
      <point x="247" y="300" type="qcurve"/>
      <point x="247" y="289"/>
      <point x="260" y="272"/>
      <point x="281" y="258"/>
      <point x="308" y="251"/>
      <point x="321" y="251" type="qcurve"/>
      <point x="352" y="251"/>
      <point x="381" y="285"/>
      <point x="381" y="300" type="qcurve"/>
      <point x="381" y="315"/>
      <point x="352" y="349"/>
      <point x="321" y="349" type="qcurve"/>
      <point x="308" y="349"/>
      <point x="281" y="342"/>
      <point x="260" y="328"/>
      <point x="247" y="310"/>
    </contour>
  </outline>
</glyph>
<glyph name="notequal" format="2">
  <advance width="651"/>
  <unicode hex="2260"/>
  <outline>
    <contour>
      <point x="573" y="358" type="line"/>
      <point x="573" y="344" type="line"/>
      <point x="374" y="344" type="line"/>
      <point x="223" y="164" type="line"/>
      <point x="573" y="164" type="line"/>
      <point x="573" y="150" type="line"/>
      <point x="212" y="150" type="line"/>
      <point x="87" y="0" type="line"/>
      <point x="79" y="8" type="line"/>
      <point x="197" y="150" type="line"/>
      <point x="67" y="150" type="line"/>
      <point x="67" y="164" type="line"/>
      <point x="209" y="164" type="line"/>
      <point x="360" y="344" type="line"/>
      <point x="67" y="344" type="line"/>
      <point x="67" y="358" type="line"/>
      <point x="371" y="358" type="line"/>
      <point x="406" y="399"/>
      <point x="472" y="479"/>
      <point x="506" y="520" type="qcurve"/>
      <point x="514" y="512" type="line"/>
      <point x="386" y="358" type="line"/>
    </contour>
  </outline>
</glyph>
<glyph name="fl" format="2">
  <advance width="518"/>
  <unicode hex="FB02"/>
  <outline>
    <contour>
      <point x="36" y="361" type="line"/>
      <point x="36" y="375" type="line"/>
      <point x="101" y="375" type="line"/>
      <point x="101" y="518" type="line"/>
      <point x="101" y="573"/>
      <point x="130" y="659"/>
      <point x="181" y="717"/>
      <point x="248" y="748"/>
      <point x="286" y="750" type="qcurve"/>
      <point x="420" y="750" type="line"/>
      <point x="420" y="14" type="line"/>
      <point x="501" y="14" type="line"/>
      <point x="501" y="0" type="line"/>
      <point x="326" y="0" type="line"/>
      <point x="326" y="14" type="line"/>
      <point x="406" y="14" type="line"/>
      <point x="406" y="736" type="line"/>
      <point x="286" y="736" type="line"/>
      <point x="252" y="736"/>
      <point x="190" y="706"/>
      <point x="143" y="650"/>
      <point x="115" y="571"/>
      <point x="115" y="522" type="qcurve"/>
      <point x="115" y="375" type="line"/>
      <point x="245" y="375" type="line"/>
      <point x="245" y="361" type="line"/>
      <point x="115" y="361" type="line"/>
      <point x="115" y="14" type="line"/>
      <point x="216" y="14" type="line"/>
      <point x="216" y="0" type="line"/>
      <point x="21" y="0" type="line"/>
      <point x="21" y="14" type="line"/>
      <point x="101" y="14" type="line"/>
      <point x="101" y="361" type="line"/>
    </contour>
  </outline>
</glyph>
